<svg xmlns="http://www.w3.org/2000/svg" xmlns:svgjs="http://svgjs.com/svgjs" xmlns:xlink="http://www.w3.org/1999/xlink" width="288" height="288"><svg xmlns="http://www.w3.org/2000/svg" width="288" height="288" viewBox="0 0 50 50"><path fill="#d71920" d="M41 4H9C6.243 4 4 6.243 4 9v32c0 2.757 2.243 5 5 5h32c2.757 0 5-2.243 5-5V9c0-2.757-2.243-5-5-5zm-3.994 18.323a7.482 7.482 0 01-.69.035 7.492 7.492 0 01-6.269-3.388v11.537a8.527 8.527 0 11-8.527-8.527c.178 0 .352.016.527.027v4.202c-.175-.021-.347-.053-.527-.053a4.351 4.351 0 100 8.704c2.404 0 4.527-1.894 4.527-4.298l.042-19.594h4.016a7.488 7.488 0 006.901 6.685v4.67z" class="color000 svgShape"/></svg></svg>