<svg xmlns:xlink="http://www.w3.org/1999/xlink" version="1.1" id="search-rs" x="0" y="0" viewBox="0 0 50 50" xml:space="preserve" xmlns="http://www.w3.org/2000/svg" width="50"  height="50" ><style>.bdst0{fill:none}</style><g id="bdGroup_6028" transform="translate(-121.908 -22.827)"><g id="bdEllipse_358"><circle class="bdst0" cx="-69.9" cy="-63.3" r="12.4" transform="rotate(-45 158.692 -264.138)"></circle><path d="M-81.4-51.8c-3.1-3.1-4.8-7.2-4.8-11.5 0-9 7.3-16.3 16.3-16.3 4.3 0 8.4 1.7 11.5 4.8 3.1 3.1 4.8 7.2 4.8 11.5s-1.7 8.4-4.8 11.5c-3.1 3.1-7.2 4.8-11.5 4.8-4.4-.1-8.4-1.8-11.5-4.8zm20.3-20.3c-2.4-2.4-5.5-3.6-8.8-3.6-6.9 0-12.4 5.6-12.4 12.4 0 3.3 1.3 6.5 3.6 8.8 2.4 2.4 5.5 3.6 8.8 3.6 3.3 0 6.5-1.3 8.8-3.6s3.6-5.5 3.6-8.8-1.3-6.5-3.6-8.8z" transform="rotate(-45 158.692 -264.138)"></path></g><g id="bdEllipse_403"><circle class="bdst0" cx="-71.4" cy="-64.8" r="9.6" transform="rotate(-45 159.753 -266.699)"></circle><path d="M-78.2-58.1c-1.7-1.7-2.8-4.1-2.8-6.8 0-5.3 4.3-9.6 9.6-9.6s9.6 4.3 9.6 9.6-4.3 9.6-9.6 9.6c-2.6 0-5-1-6.8-2.8zM-66-70.3c-1.4-1.4-3.3-2.2-5.4-2.2-4.2 0-7.7 3.4-7.7 7.7 0 4.2 3.4 7.7 7.7 7.7 4.2 0 7.7-3.4 7.7-7.7 0-2.2-.9-4.1-2.3-5.5z" transform="rotate(-45 159.753 -266.699)"></path></g><path d="M167.7 70c-.5 0-1-.2-1.4-.6l-17.6-17.6c-.7-.7-.7-2 0-2.7.7-.7 2-.7 2.7 0L169 66.8c.7.7.7 2 0 2.7-.3.4-.8.5-1.3.5z" id="bdLine_1694"></path><path d="M167.7 72c-1 0-2-.4-2.7-1.1l-12.2-12.2c-1.5-1.5-1.5-3.9 0-5.4 1.5-1.5 3.9-1.5 5.4 0l12.2 12.2c1.5 1.5 1.5 3.9 0 5.4-.8.7-1.7 1.1-2.7 1.1z" id="bdLine_1695"></path></g></svg>