<?xml version="1.0" standalone="no"?>
<!DOCTYPE svg PUBLIC "-//W3C//DTD SVG 20010904//EN"
 "http://www.w3.org/TR/2001/REC-SVG-20010904/DTD/svg10.dtd">
<svg version="1.0" xmlns="http://www.w3.org/2000/svg"
 width="1200.000000pt" height="356.000000pt" viewBox="0 0 1200.000000 356.000000"
 preserveAspectRatio="xMidYMid meet">

<g transform="translate(0.000000,356.000000) scale(0.100000,-0.100000)"
fill="#000000" stroke="none">
<path d="M1824 3400 c-43 -10 -91 -45 -109 -80 -8 -16 -15 -50 -15 -75 0 -87
31 -121 162 -176 117 -49 142 -76 135 -147 -6 -52 -29 -79 -73 -88 -85 -16
-173 42 -203 134 -8 23 -20 42 -28 42 -10 0 -13 -23 -13 -100 0 -91 2 -100 19
-100 10 0 22 7 25 15 5 13 11 13 48 -6 53 -28 157 -31 203 -7 95 51 134 163
82 239 -29 43 -71 71 -156 104 -70 26 -114 63 -124 103 -8 36 12 81 44 97 78
41 158 -7 189 -112 7 -24 19 -43 27 -43 10 0 13 22 13 95 0 71 -3 95 -13 95
-7 0 -17 -4 -22 -9 -6 -6 -31 -3 -65 9 -59 21 -77 22 -126 10z"/>
<path d="M20 3375 c0 -8 9 -15 21 -15 11 0 29 -5 40 -10 18 -10 19 -24 19
-250 0 -226 -1 -240 -19 -250 -11 -5 -29 -10 -40 -10 -12 0 -21 -7 -21 -15 0
-13 21 -15 125 -15 104 0 125 2 125 15 0 10 -10 15 -28 15 -46 0 -52 15 -52
126 l0 102 78 3 c65 3 85 9 120 31 52 35 76 79 76 143 0 62 -22 97 -78 125
-37 18 -61 20 -204 20 -137 0 -162 -2 -162 -15z m278 -26 c39 -13 61 -47 68
-101 10 -82 -51 -148 -138 -148 l-38 0 0 130 0 130 39 0 c21 0 52 -5 69 -11z"/>
<path d="M540 3375 c0 -8 9 -15 20 -15 11 0 29 -9 40 -20 19 -19 20 -33 20
-238 0 -237 -5 -262 -56 -262 -15 0 -24 -6 -24 -15 0 -12 20 -15 120 -15 100
0 120 3 120 15 0 9 -9 15 -24 15 -46 0 -56 22 -56 131 l0 99 33 0 c31 0 39 -8
104 -97 38 -54 78 -113 89 -130 18 -33 19 -33 96 -33 63 0 78 3 78 15 0 8 -8
15 -17 15 -34 0 -73 37 -153 144 -45 59 -80 108 -78 109 117 59 142 90 135
170 -5 57 -42 102 -96 117 -20 5 -107 10 -193 10 -134 0 -158 -2 -158 -15z
m290 -33 c46 -22 62 -55 57 -115 -3 -38 -11 -56 -35 -80 -26 -26 -40 -31 -92
-35 l-60 -4 0 126 0 126 48 0 c26 0 63 -8 82 -18z"/>
<path d="M1130 3375 c0 -8 8 -15 18 -15 10 0 28 -7 40 -16 22 -15 22 -19 22
-244 0 -248 -3 -260 -56 -260 -15 0 -24 -6 -24 -15 0 -13 33 -15 240 -15 l240
0 0 39 c0 21 3 59 6 85 9 66 -16 62 -50 -8 -15 -30 -34 -60 -43 -67 -22 -19
-197 -19 -215 -1 -8 8 -14 51 -16 122 l-4 110 61 0 c68 0 94 -18 105 -71 3
-17 12 -29 21 -29 13 0 15 19 15 116 0 103 -2 115 -17 112 -9 -2 -20 -16 -25
-33 -11 -43 -34 -55 -100 -55 l-59 0 3 113 3 112 81 3 c76 3 84 1 113 -24 18
-14 38 -39 47 -55 24 -47 34 -34 34 41 l0 70 -220 0 c-189 0 -220 -2 -220 -15z"/>
<path d="M2150 3377 c0 -8 17 -18 38 -23 l37 -9 3 -240 c2 -217 1 -241 -15
-252 -9 -7 -27 -13 -40 -13 -14 0 -23 -6 -23 -15 0 -13 33 -15 239 -15 l239 0
6 23 c3 12 6 50 6 85 0 70 -18 84 -38 29 -6 -18 -24 -48 -40 -66 -27 -33 -32
-34 -110 -39 -65 -4 -87 -1 -107 12 -24 16 -25 20 -25 126 l0 110 58 0 c66 0
87 -15 98 -68 4 -18 13 -32 20 -32 11 0 14 24 14 115 0 92 -3 115 -14 115 -8
0 -17 -12 -21 -27 -12 -50 -32 -63 -97 -63 l-58 0 0 115 0 115 74 0 c97 0 121
-10 154 -65 39 -65 52 -59 52 25 l0 70 -225 0 c-180 0 -225 -3 -225 -13z"/>
<path d="M2670 3375 c0 -8 7 -15 15 -15 30 0 72 -29 84 -58 18 -43 11 -413 -8
-435 -7 -9 -28 -19 -47 -23 -19 -3 -34 -12 -34 -20 0 -11 24 -14 120 -14 93 0
120 3 120 13 0 8 -17 18 -37 23 -59 14 -64 34 -61 244 l3 181 174 -235 c116
-157 181 -236 193 -236 17 0 18 15 18 249 0 137 4 261 10 275 6 18 19 27 45
32 20 3 35 12 35 20 0 11 -24 14 -115 14 -90 0 -115 -3 -115 -13 0 -8 18 -19
40 -26 34 -10 41 -17 50 -51 6 -22 9 -106 8 -192 l-3 -153 -162 218 -163 217
-85 0 c-69 0 -85 -3 -85 -15z"/>
<path d="M3320 3310 c0 -44 4 -80 9 -80 5 0 23 25 40 55 34 60 58 75 122 75
l39 0 0 -243 c0 -224 -2 -245 -18 -260 -10 -10 -33 -17 -50 -17 -22 0 -32 -5
-32 -15 0 -13 22 -15 140 -15 112 0 140 3 140 14 0 8 -16 16 -40 20 -24 4 -43
14 -50 26 -7 12 -9 104 -8 252 l3 233 46 3 c56 4 88 -19 119 -83 34 -71 50
-60 50 35 l0 80 -255 0 -255 0 0 -80z"/>
<path d="M3870 3377 c0 -8 17 -18 38 -23 l37 -9 3 -240 c2 -217 1 -241 -15
-252 -9 -7 -27 -13 -40 -13 -14 0 -23 -6 -23 -15 0 -13 33 -15 239 -15 l239 0
6 23 c3 12 6 50 6 85 0 70 -18 84 -38 29 -6 -18 -24 -48 -40 -66 -27 -33 -32
-34 -110 -39 -65 -4 -87 -1 -107 12 -24 16 -25 20 -25 126 l0 110 58 0 c66 0
87 -15 98 -68 4 -18 13 -32 20 -32 11 0 14 24 14 115 0 92 -3 115 -14 115 -8
0 -17 -12 -21 -27 -12 -50 -32 -63 -97 -63 l-58 0 0 115 0 115 74 0 c97 0 121
-10 154 -65 39 -65 52 -59 52 25 l0 70 -225 0 c-180 0 -225 -3 -225 -13z"/>
<path d="M4430 3376 c0 -9 8 -16 20 -16 11 0 29 -9 41 -21 19 -19 20 -29 17
-250 -3 -246 -4 -248 -55 -249 -14 0 -23 -6 -23 -15 0 -13 23 -15 153 -15 211
1 287 29 357 132 30 43 34 58 38 132 6 106 -14 169 -70 226 -71 74 -108 84
-305 88 -153 3 -173 2 -173 -12z m289 -26 c140 -40 202 -203 145 -382 -24 -73
-100 -128 -180 -128 -39 0 -82 21 -88 43 -8 31 -8 462 1 470 10 10 83 8 122
-3z"/>
<path d="M5260 3375 c0 -8 8 -15 18 -15 10 0 28 -7 40 -16 22 -15 22 -19 22
-249 0 -221 -1 -235 -19 -245 -11 -5 -29 -10 -40 -10 -12 0 -21 -7 -21 -15 0
-13 25 -15 168 -15 187 0 225 10 275 69 22 27 27 42 27 86 0 46 -5 59 -31 90
-19 21 -47 39 -72 47 -48 13 -70 28 -43 28 29 0 85 39 101 70 35 68 10 141
-59 174 -49 23 -366 24 -366 1z m317 -49 c35 -41 33 -115 -5 -157 -24 -27 -37
-33 -85 -37 l-57 -4 0 117 0 117 62 -4 c51 -4 65 -9 85 -32z m-7 -244 c21 -10
42 -32 54 -55 17 -35 17 -43 5 -89 -18 -66 -53 -93 -118 -93 -76 0 -81 9 -81
141 l0 114 53 0 c29 0 67 -8 87 -18z"/>
<path d="M5750 3377 c0 -7 15 -17 32 -22 39 -12 63 -46 147 -208 59 -112 61
-119 61 -192 0 -86 -18 -115 -70 -115 -20 0 -30 -5 -30 -15 0 -13 22 -15 135
-15 109 0 135 3 135 14 0 8 -15 17 -35 20 -46 9 -55 29 -55 120 0 68 4 81 42
154 63 123 129 215 166 232 60 28 40 40 -68 40 -82 0 -100 -3 -100 -15 0 -9 9
-15 23 -15 13 0 32 -6 42 -14 18 -13 17 -15 -12 -67 -17 -30 -48 -82 -70 -117
l-40 -63 -62 116 c-35 63 -61 122 -57 130 3 9 18 15 36 15 20 0 30 5 30 15 0
13 -21 15 -125 15 -96 0 -125 -3 -125 -13z"/>
<path d="M929 2090 c-205 -35 -387 -124 -533 -261 -64 -59 -67 -64 -45 -70
121 -32 188 -125 208 -289 6 -46 11 -90 11 -97 0 -10 -26 -13 -104 -13 l-104
0 -6 48 c-15 105 -48 152 -108 152 -63 0 -98 -46 -98 -127 1 -96 45 -155 203
-272 110 -81 176 -152 214 -229 36 -73 45 -221 19 -300 -33 -99 -116 -182
-204 -204 l-43 -11 43 -44 c107 -110 282 -210 448 -255 73 -20 108 -23 250
-23 140 0 178 4 250 23 163 44 340 143 438 245 l44 44 -46 22 c-100 49 -198
204 -236 376 -40 183 -36 419 11 603 42 167 137 301 240 339 l51 20 -78 72
c-132 123 -288 201 -481 240 -104 22 -254 26 -344 11z m-9 -625 l0 -266 128 3
127 3 3 263 2 262 110 0 110 0 0 -655 0 -655 -110 0 -110 0 0 285 0 285 -130
0 -130 0 0 -285 0 -285 -110 0 -110 0 0 655 0 655 110 0 110 0 0 -265z"/>
<path d="M6839 1716 c-64 -17 -103 -48 -130 -104 -21 -42 -24 -61 -23 -187 0
-163 9 -199 63 -248 50 -45 100 -61 169 -54 71 8 129 46 160 107 20 40 22 59
22 186 0 160 -8 194 -58 246 -51 54 -126 74 -203 54z m135 -77 c49 -39 56 -66
56 -221 0 -122 -3 -147 -19 -174 -36 -60 -127 -81 -188 -44 -62 37 -68 58 -68
220 0 159 9 189 64 223 39 24 122 22 155 -4z"/>
<path d="M7379 1716 c-64 -17 -104 -49 -130 -104 -21 -42 -24 -61 -24 -187 0
-88 5 -154 13 -177 16 -45 76 -101 127 -118 48 -16 136 -7 178 17 36 22 83 85
93 126 6 25 4 27 -27 27 -30 0 -36 -5 -50 -39 -21 -49 -57 -73 -117 -78 -54
-5 -99 18 -129 64 -15 23 -18 49 -18 173 0 124 3 149 19 176 26 44 66 64 124
64 58 0 93 -23 122 -81 17 -32 26 -39 50 -39 35 0 37 10 11 65 -24 53 -81 102
-128 110 -21 4 -45 8 -53 10 -8 2 -36 -2 -61 -9z"/>
<path d="M2235 1688 c8 -47 165 -1230 165 -1245 0 -10 26 -13 104 -13 91 0
105 2 110 18 2 9 28 187 58 396 37 267 55 370 60 350 5 -16 28 -180 53 -364
25 -184 47 -350 50 -367 l6 -33 105 0 c75 0 106 4 109 12 2 7 34 243 70 523
36 281 68 520 71 533 4 21 9 22 99 22 l95 0 0 -545 0 -545 120 0 120 0 0 545
0 545 105 0 105 0 0 -545 0 -545 120 0 120 0 0 645 0 645 -514 0 -513 0 -11
-82 c-6 -46 -25 -206 -43 -355 -18 -150 -36 -273 -39 -273 -3 0 -25 143 -49
318 -23 174 -45 334 -48 355 l-6 37 -107 0 -107 0 -32 -217 c-79 -531 -77
-522 -85 -473 -7 46 -76 665 -76 681 0 5 -50 9 -110 9 l-111 0 6 -32z"/>
<path d="M4190 1075 l0 -645 90 0 90 0 1 453 1 452 77 -450 76 -450 68 -3 c37
-2 67 0 67 3 0 18 152 910 155 914 3 2 5 -203 5 -457 l0 -462 105 0 105 0 0
645 0 645 -154 0 -154 0 -12 -72 c-55 -333 -98 -561 -103 -548 -6 15 -97 587
-97 609 0 8 -46 11 -160 11 l-160 0 0 -645z"/>
<path d="M5140 1075 l0 -645 273 2 272 3 0 100 0 100 -152 3 -153 3 0 169 0
170 110 0 110 0 0 105 0 105 -110 0 -110 0 0 165 0 165 145 0 145 0 0 100 0
100 -265 0 -265 0 0 -645z"/>
<path d="M6150 1419 l0 -301 133 4 c111 3 139 8 174 26 81 42 103 101 103 277
0 145 -11 188 -59 236 -48 48 -91 59 -233 59 l-118 0 0 -301z m267 224 c63
-29 73 -59 73 -216 0 -150 -7 -178 -56 -216 -23 -18 -41 -21 -120 -21 l-94 0
0 235 0 235 81 0 c55 0 92 -5 116 -17z"/>
<path d="M7770 1498 c0 -195 3 -228 19 -263 80 -174 350 -143 390 45 6 28 11
139 11 245 l0 195 -35 0 -35 0 0 -212 c0 -183 -3 -218 -18 -248 -37 -74 -131
-102 -199 -60 -59 36 -63 55 -63 300 l0 220 -35 0 -35 0 0 -222z"/>
<path d="M8342 1423 l3 -298 32 -3 33 -3 2 220 3 220 77 -167 c75 -165 76
-167 108 -167 32 0 33 1 109 169 l76 169 3 -221 2 -222 30 0 30 0 0 301 0 300
-32 -3 c-32 -3 -34 -7 -123 -205 -49 -111 -93 -199 -97 -195 -4 4 -47 95 -96
202 l-89 195 -37 3 -36 3 2 -298z"/>
<path d="M9022 1423 l3 -298 183 -3 182 -2 0 35 0 35 -150 0 -150 0 0 100 0
99 128 3 127 3 0 30 0 30 -127 3 -128 3 0 99 0 100 150 0 150 0 0 30 0 30
-185 0 -185 0 2 -297z"/>
<path d="M9520 1419 l0 -300 33 3 32 3 5 230 5 229 152 -232 c143 -218 154
-232 183 -232 l30 0 0 300 0 300 -35 0 -35 0 0 -231 0 -230 -152 230 c-147
222 -154 231 -185 231 l-33 0 0 -301z"/>
<path d="M10070 1690 l0 -30 85 0 85 0 0 -271 0 -270 33 3 32 3 3 268 2 267
85 0 85 0 0 30 0 30 -205 0 -205 0 0 -30z"/>
<path d="M10676 1712 c-6 -11 -216 -580 -216 -587 0 -3 15 -5 34 -5 34 0 35 1
57 70 l23 71 129 -3 129 -3 25 -67 c25 -66 26 -68 60 -68 28 0 33 3 29 18 -4
9 -52 143 -109 297 -97 264 -104 280 -129 283 -14 2 -29 -1 -32 -6z m84 -242
c23 -69 45 -131 47 -137 4 -10 -20 -13 -101 -13 -58 0 -106 2 -106 4 0 2 23
66 50 142 28 76 50 140 50 143 0 21 24 -34 60 -139z"/>
<path d="M11042 1423 l3 -298 30 0 30 0 3 133 3 132 67 0 67 -1 70 -132 c56
-105 75 -133 93 -135 47 -7 53 4 28 50 -13 24 -44 82 -69 131 l-46 87 33 14
c122 51 124 242 3 296 -35 16 -66 20 -180 20 l-137 0 2 -297z m277 226 c65
-23 83 -119 32 -170 -29 -28 -32 -29 -135 -29 l-106 0 0 105 0 105 89 0 c48 0
102 -5 120 -11z"/>
<path d="M11510 1713 c0 -3 37 -76 83 -162 l82 -156 5 -135 5 -135 33 -3 32
-3 0 125 0 126 85 170 c47 93 85 172 85 175 0 3 -15 5 -33 5 -32 0 -34 -3
-102 -140 l-69 -140 -67 140 -68 140 -35 0 c-20 0 -36 -3 -36 -7z"/>
<path d="M1875 1540 c-90 -37 -147 -211 -147 -445 1 -270 75 -455 184 -455
112 0 201 295 168 562 -20 174 -65 293 -123 328 -34 21 -51 23 -82 10z"/>
<path d="M76 1033 c13 -172 55 -304 114 -363 41 -41 69 -50 118 -38 85 22 105
173 35 266 -20 27 -255 212 -269 212 -2 0 -1 -35 2 -77z"/>
<path d="M6150 729 l0 -300 33 3 32 3 3 128 3 127 124 0 125 0 0 30 0 30 -125
0 -125 0 0 110 0 110 150 0 150 0 0 30 0 30 -185 0 -185 0 0 -301z"/>
<path d="M6630 730 l0 -300 35 0 35 0 0 300 0 300 -35 0 -35 0 0 -300z"/>
<path d="M6865 1017 c-3 -7 -4 -140 -3 -297 l3 -285 183 -3 182 -2 0 30 0 30
-150 0 -150 0 0 270 0 270 -30 0 c-17 0 -33 -6 -35 -13z"/>
<path d="M7340 730 l0 -300 35 0 35 0 2 215 3 214 75 -164 c73 -161 76 -165
106 -165 30 0 32 3 107 168 l76 167 3 -215 3 -215 33 -3 32 -3 0 300 0 301
-33 0 -32 0 -90 -201 c-49 -110 -92 -202 -95 -204 -4 -2 -49 88 -100 200 l-94
205 -33 0 -33 0 0 -300z"/>
<path d="M8070 1008 c-58 -30 -84 -75 -84 -145 0 -94 47 -135 188 -162 114
-21 136 -38 136 -102 0 -29 -8 -47 -29 -71 -28 -32 -32 -33 -108 -33 -71 0
-84 3 -122 28 l-44 29 -20 -20 c-18 -18 -19 -23 -6 -38 29 -35 110 -64 182
-64 144 0 230 79 213 195 -13 82 -59 118 -178 136 -82 13 -122 30 -138 58 -24
46 -3 114 41 137 41 21 123 18 170 -7 39 -19 42 -19 60 -3 15 14 17 20 6 32
-44 53 -189 69 -267 30z"/>
<path d="M5813 612 c-31 -5 -73 -58 -73 -93 0 -17 11 -41 28 -60 22 -25 36
-31 67 -31 31 0 45 6 67 31 35 39 36 80 3 119 -25 30 -52 40 -92 34z m80 -44
c41 -49 7 -122 -58 -122 -61 0 -94 60 -64 115 22 42 89 46 122 7z"/>
<path d="M5800 514 c0 -34 4 -53 10 -49 6 3 10 15 10 26 0 27 17 24 35 -8 l16
-28 -5 30 c-2 17 -1 37 4 45 14 23 -1 40 -36 40 l-34 0 0 -56z m58 29 c2 -8
-5 -13 -17 -13 -12 0 -21 6 -21 16 0 18 31 15 38 -3z"/>
</g>
</svg>
