<svg xmlns="http://www.w3.org/2000/svg" xml:space="preserve" id="Layer_1" x="0" y="0" version="1.1" viewBox="0 0 690.6 135.8"><style>.gl-st1{fill:#d71920}</style><path d="m556.7 51.8-.2.9v.1l.2-1zm1.5 27.1 3.2-17.9.9-5.1H557c.2 1.5.2 3.1.2 4.7 0 18.4-13.5 38.4-35.4 38.4-3.4 0-6.6-.4-9.4-1.3l.1.1c4.4 4.4 10.5 6.6 18.1 6.6 7.5 0 14-2.6 19.2-6.8l1.9-1.6-1.3-1.3 2.2-12.2h2.8c1.3 0 2.1 0 2.8-3.6zm-36.1 2.3c1.1 0 2.6-1.5 4-4 .7-6.6 2.4-12.6 4.6-16.9.1-1.6.2-3.3.2-5.1 0-2.9-.5-5.1-1.5-6.3-.1-.1-.2-.2-.6-.2-3 0-8.8 11-8.8 26 0 2.9.5 5.1 1.5 6.3.2.1.3.2.6.2zM482 78.8c1.5 0 3.1-.7 7.4-4.3l3.2-18.4h3.6c.7-1.9 1.4-3.7 2.4-5.5h-12.1l-4.2 24.3c-.4 2.4-.3 3.5-.3 3.9-.1 0-.1 0 0 0zm15.2-49.1-6.1-6.1-1.8 10.4h7.2zm4.5 61.7c-1.4-1.4-2.6-2.9-3.6-4.6l-.2.2-.3.3c-5 5-13 11.7-24.2 11.7-1.2 0-2.3-.1-3.4-.3.4.7 1 1.3 1.5 1.9 2.6 2.6 6.2 3.9 10.7 3.9 9.5 0 16.5-5.2 22.1-10.8-1-.7-1.8-1.5-2.6-2.3zm-77.6-55.8c.1-4.3 3.1-10.5 12.5-10.5 1.7 0 3.4.1 5.1.2-.4-1-.9-2-1.6-2.7-1.8-1.8-4.8-2.8-8.3-2.8-3.4 0-11.4.8-11.4 8.4 0 2.8.9 4.8 3.7 7.4zm35.6 57.6c-1.7-2-3.3-5-3.7-9.4-1.2 4.8-3.5 9.1-6.7 12.7-7 8-18.5 12.8-32.3 12.8-9.2 0-15.6-2.1-20.8-4.2l2.9 2.9c6.4 2.3 13.5 6.9 26.7 6.9 17.5 0 30.6-7.8 35.2-20.4-.1-.1-.2-.2-.4-.3-.3-.3-.6-.7-.9-1zm-5-51.6 1-5.5h-7.9l5.5 5.5zm-55 10.5c-.8-1-1.5-2.1-2.2-3.2-1.5-2.6-2.5-5.3-3-8.2l-1.5 8.6-.9 4.9-3.1-.7c-1.2-.3-2.2-.4-3.1-.4-1.3 0-2.3.3-2.8.8-1.1 1.1-1.5 2.6-2 5.2-.8 3.9-1.8 9.2-7.6 15-4.4 4.4-10.7 7.1-18.1 8v.9c.6.1 1.3.1 2 .2l2.3.2c4.4.4 8.9.8 12.7 2.1 3.1-1.3 5.7-3 7.8-5 .4-.4.9-.9 1.2-1.3 0-3.3.1-6.5 0-9.5v-3h5.7c.5-2.5 1-4.7 2.7-6.4 1.4-1.4 4.2-2.2 8.7-1.2l1.2-7zm-49 14.6c1.3 0 3.9-3.3 5.2-10.3.9-5 .3-7.9-.5-8.9-.2-.2-.3-.3-.8-.3-1.5 0-4.3 3.3-5.5 10.2-.9 5-.2 7.9.6 8.9.3.2.5.4 1 .4zm3.4 41.6c-.7-.1-1.8-.3-3.1-.4l-1.4-.1c-4.6-.4-10.2-1-15.1-2.4-2.7 1.2-4.4 2.2-4.5 3.2.4.3 2.4 1.8 12.1 1.8 5.9 0 9.9-1.1 12-2.1zm-26.7-32.2.5-2.8c-2.4-2.7-4-5.8-4.8-9.3h-.8l-3 16.9c-.1.9-.2 1.4-.1 1.6.2 0 .5.1.9.1h2.4c1.1-2.5 2.7-4.7 4.9-6.5zm-65-35.7c6-1.6 10.5-6.6 10.5-12.5 0-2.7-.8-5.1-2.5-6.8l-3.4-3.4c.1.5.1 1.1.1 1.6 0 2.3-.6 4.6-1.5 6.6-1 1.9-2.3 3.7-4 5.1l2.1 2.1-1.3 7.3zm-23.5-9.9c-.7-1-1.3-2.2-1.7-3.4-.4-1.3-.6-2.7-.6-4.2 0-3.5 1.3-6.8 3.4-9.5l-4.5-4.5-3.8 21.8-2.2 12.7 7.8-3.2 1.6-9.7zm-99.7 73.9c7.4 0 14-2.6 19.2-6.8l.5-.4.2-.2-1.8-1.8-.7-.7 2-11c-6.1 8.9-15.8 15.3-28.2 15.3-3.4 0-6.6-.4-9.4-1.3l.1.1c4.5 4.6 10.6 6.8 18.1 6.8zm24.6-22.1c.6-.3 1-1.2 1.4-3.4l4-22.8c-1.2-2.7-2.7-5-4.7-7-.1-.1-.3-.3-.5-.4 1.2 3.5 1.7 7.4 1.7 11.8 0 7.5-2.2 15.2-6.3 21.7l4.4.1zm-33.1-1.1c1.1 0 2.6-1.5 4-4 .7-6.6 2.4-12.6 4.6-16.9.1-1.6.2-3.3.2-5.1 0-2.9-.5-5.1-1.5-6.3-.1-.1-.2-.2-.6-.2-3 0-8.8 11-8.8 26 0 2.9.5 5.1 1.5 6.3.2.1.2.2.6.2zM58.5 93.1h.6l3.4-19.2c-1-2.1-1.9-4.2-2.7-6.4h-3.4l-3.5 19.9c-.5 2.7-.2 3.8.1 4.2.5.5 1.8 1.2 5.5 1.5zm9.2-72.7h-2.9l-5.1 28.7h.9c2.4 0 4.5-.2 6.4-.5L71 26c1.8-.1 3.6-.1 5.5-.1 2 0 3.7.1 5.3.3-1.4-3.3-5-5.8-14.1-5.8zM30.8 50.9l1.7-9.5 1.7-9.7 1.3-7.4c-2.9.9-5.4 1.9-7.6 3.1 1.6 2.4 2.1 5.5 1.5 8.8-.9 5.1-4.8 9.2-9.9 10.9-1.6.5-3.3.8-5.1.8-.5 0-.9 0-1.4-.1l2.8 2.8c1.7 1.7 4.2 2.7 7.3 2.7 2.7 0 5.5-.8 7.7-2.4zm86.8-13.1c-.2-5.8-2.3-10.6-6.1-14.4-.2-.2-.5-.4-.7-.6.7 2.4 1 4.9 1 7.6 0 13.5-8 24.7-22 31.1 1 2.5 2.2 4.9 3.5 7.3l1.4-.5c2.9-1.1 5.5-2.5 7.8-3.9 1.5-10.1 6.8-20.2 15.1-26.6zM676.1 84c-8.1 7.4-18.2 15-31.9 15-3 0-5.8-.3-8.3-1 .2.3.4.5.7.8 3.8 3.8 9.2 5.7 16.4 5.7 12.7 0 22.4-7.3 29.9-14.2l-4.9-7.9-1.9 1.6zm5.2-35.7c-.3-.3-.7-.6-1.1-.9.6 2.2.9 4.5.9 6.9 0 2.2-.3 4.5-.9 6.9l-.4 1.5-34.1 13.6c.8.8 2.2 1.5 4.7 1.5 4.5 0 10.5-2.7 16.2-7.2l.9-.7h2.5l2.7 4.3 13.2-5.2c.5-2.2.8-4.3.8-6.2.2-6.1-1.9-11-5.4-14.5zm-26.4 2.5c0-2.3-.5-2.8-.6-2.8h-.2c-2.2 0-5.3 3.6-7.4 9.8l7.8-3.3c.3-1.5.4-2.8.4-3.7zm-29.7 42.4-6.1-6.1-1.8 10.1h-60.4l5.5 5.5h61.1l1.6-8.7.1-.8zm-433.4 9.6h117.8c1.5-2 3.5-3.6 5.9-4.9.4-.2.7-.4 1.1-.6H188.5c1.6 1.6 2.7 3.5 3.3 5.5zm11.4-93.9-1.5 8.1 6.6-3zm-144 99.5-2.7-.2c-5.5-.4-12.8-.9-20.8-.9-1.7 0-3.4 0-5.2.1-3.6.1-7.5.3-12 .6l5.7 5.7c6.8-.5 13.5-.9 20.3-.9 7.4 0 14.3.4 21.1.9l1.6-9.1-6.1-6.1-1.9 9.9zm132.4 1.8c-2 7.4-10.2 16.2-37.5 16.2-17.1 0-32.5-3.1-46.2-9.1l1.4 1.4c14.8 8.4 32.6 13.3 53.6 13.3 25.5 0 35.1-7.8 35.1-17.6 0-2.6-1.2-4.8-3-6.6l-.4-.4-2.4-2.4v.9c0 1.3-.1 2.8-.6 4.3zM459 26.4c-.1.7-.3 1.3-.4 2-.4 1.9-.7 3.7-1 5.3l-.3 2-.1 1.1 8.3-5.1c1.2-5.5 2.5-11.3 3.6-15.2l-6.3-6.3c-1.2 4.3-2.6 10.5-3.8 16.2zm-58.6 54.5c1 2 2.2 3.8 3.5 5.1.3.3.7.6 1 1-.9-2.7-1.5-5.6-1.8-8.8l-5.3-5.3c.6 3 1.5 5.7 2.6 8zm222.2-35.6c-.1-.1-.1-.1 0 0l-2.3-2.3c.2 1.3.4 2.7.4 4.2 0 1.6-.1 3.2-.4 5l-5.1 28.7c-.1.9-.2 1.4-.1 1.6.2 0 .5.1.9.1h2.2l1.4 1.4.5.5.2-1.5-.1-.4c-.8-2.8-1.2-5.9-1.2-9.2 0-9.1 2.3-17.3 6.3-24-.6-1.7-1.5-3.1-2.7-4.1zM417.8 72.4l11.6 8.8v-.1c0-3.9-1.7-5.9-6.5-9.6l-13-9.9c-2.1-1.6-3.9-3.1-5.4-4.5 1.3 3.3 3.3 6.2 6.1 9.1 2 2 4.5 4.1 7.2 6.2zM224.1 82.5h3.6c.8 0 1.6-.7 1.8-1.5l.1-.7 4.3-24.4h-3.2l-2.9-2.9-5 28.1c-.1.8.5 1.4 1.3 1.4zm32.4 0h3.6c.8 0 1.6-.7 1.8-1.5l.1-.8 4.3-24.4h-3.2l-2.9-2.9-5 28.1c-.1.9.4 1.5 1.3 1.5zm-64.8 0h3.6c.8 0 1.6-.7 1.8-1.5l.1-.7 9-51H203l-2.9-2.9-9.6 54.6c-.2.9.4 1.5 1.2 1.5zm97.1 0h3.1c.8 0 1.6-.7 1.8-1.5l4.2-23.9.3-1.8.2-1h-.1l-.3-.1-6.3 4.6-.3.2-3.9 21.9c-.1 1 .5 1.6 1.3 1.6zm295.9 0h3.1c.8 0 1.6-.7 1.8-1.5l4.3-24.5.2-1.2.2-1h-.1l-.3-.1-6.3 4.6-.3.2-3.9 21.9c-.1 1 .5 1.6 1.3 1.6zm-202.5 19-.2-.2c-.8 7.1-4.7 13.5-11.2 18.2-7.7 5.5-18.8 8.4-32.1 8.4-7.1 0-13.1-.8-18-2.2.3.3.5.6.8.9 4.3 4.3 13.1 6.8 25.9 6.8 20.8 0 37.5-10.6 37.5-23.6 0-3-.9-5.9-2.7-8.3z" style="fill:#bcbec0"/><path d="M112.1 88.8c-4.5-4.5-7-11.2-7-19.9 0-18.2 13.1-35.4 32.4-35.4 7.5 0 13.7 2.2 18.1 6.6 4.5 4.6 7 11.2 7 19.9 0 18.2-13.1 35.4-32.4 35.4-7.5 0-13.6-2.2-18.1-6.6zm30.2-34.1c0-3.8-.8-6.5-2.2-8.2-.7-.8-1.6-1.3-2.9-1.3-6.1 0-11.8 14-11.8 29 0 3.8.8 6.5 2.2 8.2.6.8 1.6 1.3 2.9 1.3 6.1 0 11.8-14 11.8-29zM209.2 28c.3-1.6-.3-2.1-1.8-2.1h-4l1.3-7.5L232 6h.7l-13 73.8c-.6 3.8.4 5.2 3.8 5.2h.3l-1.6 8.7h-29.4l1.6-8.7h.3c3.4 0 4.9-1.7 5.7-6.1l8.8-50.9zm27.7 26.5c.3-1.6-.3-2.1-1.8-2.1h-4l1.3-7.5 27.2-11.3h.7l-8.2 46.3c-.7 3.8.4 5.2 3.8 5.2h.3l-1.6 8.7h-29.4l1.6-8.7h.3c3.4 0 4.9-1.7 5.7-6.1l4.1-24.5zm5-25.4c-1.7-1.7-2.5-4-2.5-6.8 0-7.2 6.5-13 14.4-13 3.4 0 5.8 1 7.5 2.7s2.5 4 2.5 6.8c0 7.2-6.5 13-14.4 13-3.4.1-5.8-1-7.5-2.7zm15.6 64.7 1.6-8.7h.3c3.4 0 4.9-1.7 5.7-6.1l4.3-24.4c.3-1.6-.3-2.1-1.8-2.1h-4l1.3-7.5 25.9-11.3h.7l-1.7 10.1 1.7-1.3c6.9-5.2 12.4-8.8 18.7-8.8 8.6 0 12.9 6.8 11.2 17.7L316.3 80c-.7 3.8.4 5.2 3.8 5.2h.3l-1.6 8.7h-29.4l1.6-8.7h.3c3.4 0 4.9-1.7 5.7-6.1l4.2-23.4c.7-3.6-.7-4.9-2.6-4.9-1.3 0-2.6.8-4.4 2.2l-5.5 4.2-4 22.9c-.6 3.8.4 5.2 3.8 5.2h.3l-1.6 8.7h-29.7v-.2z" class="gl-st1"/><path d="M389.4 50.1c-4.5-1-7.3-.3-8.7 1.2-4.4 4.4-.8 11.4-9.6 20.3-4.5 4.6-12 7.4-21.2 7.4-2.1 0-4.2-.3-6.1-.5-1.6.8-2.3 1.6-2.3 3.1 0 3 3.4 3.1 17.7 4.4 7.2.6 13.5 1.3 16.9 4.7 1.7 1.7 2.9 4 2.9 7.3 0 14.2-13.5 26.4-40.4 26.4-12.7 0-21.6-2.5-25.9-6.8-2-2-3-4.2-3-6.8 0-7.2 5.1-10.9 15.7-14.4-1-1.6-1.7-3.4-1.7-5.7 0-7.8 3.5-12.6 10.5-16.1-6.5-4.3-10.1-11.4-8.6-20.3 2.2-12.6 13.5-20.7 28.3-20.7 8.7 0 14.3 2.2 18.5 6.4 1.2 1.2 2.1 2.3 2.7 3.6 2.9-6 8.8-9 16.9-8.3l-2.6 14.8zm-31 57.3c0-1.7-1.8-2.5-7.4-3-5.2-.5-11.7-1-17-2.7-4.4 2-7.3 3.5-7.3 6.5s4.4 4.7 15.1 4.7c10.8 0 16.6-3.4 16.6-5.5zm.2-51c1.4-7.8-.1-12.7-4.2-12.7-3.8 0-7.1 5.1-8.5 12.7-1.3 7.5.3 12.7 4.4 12.7 3.8.1 6.9-5 8.3-12.7z" class="gl-st1"/><path d="M383.3 97.8c.6-8.7.9-20.2.8-28.6h10c.8 7.9 3.5 14.6 7.4 18.5 4.2 4.2 9.1 6.1 15.6 6.1 9 0 15.1-5.7 15.1-13.1 0-5.3-2.6-8.1-7.7-12l-13-9.9c-2.7-2.1-5.2-4.2-7.2-6.1-5.2-5.2-7.7-10.5-7.7-18.5 0-17.7 14.3-29.5 34.6-29.5 13.4 0 16.4 3.1 28.7 2.7-1.8 6.5-4.3 17.8-5.6 25.2h-10.1l.4-2.2c.8-4.2-.3-7.9-2.7-10.4-2.2-2.2-5.9-3.6-10.4-3.6-9 0-14.4 4.3-14.4 11.4 0 5.1 2.7 8.2 7.9 12.2l13 9.9c2.7 2.1 5.1 4.2 7.2 6.2 5.7 5.7 8.6 11.6 8.6 18.9 0 18.5-15.1 30.8-37.1 30.8-17.8 0-24.5-8.4-33.4-8z" class="gl-st1"/><path d="M481.7 81.3c2.6 0 4.9-1.3 9.4-5.1l4.2 8.5c-5.6 5.6-12.6 10.8-22.1 10.8-4.4 0-8.1-1.3-10.7-3.9-3.2-3.2-4.7-8.5-3.4-15.9l5.1-28.6h-7.7l1.4-7.9 29.6-18.5h.7l-2.7 15.9h18.1l-6.8 10.5h-13.3l-4.7 26.8c-1 5.7.2 7.4 2.9 7.4z" class="gl-st1"/><path d="M503.6 88.8c-4.5-4.5-7-11.2-7-19.9 0-18.2 13.1-35.4 32.4-35.4 7.5 0 13.7 2.2 18.1 6.6 4.5 4.6 7 11.2 7 19.9 0 18.2-13.1 35.4-32.4 35.4-7.6 0-13.7-2.2-18.1-6.6zm30.1-34.1c0-3.8-.8-6.5-2.2-8.2-.7-.8-1.6-1.3-2.9-1.3-6.1 0-11.8 14-11.8 29 0 3.8.8 6.5 2.2 8.2.6.8 1.6 1.3 2.9 1.3 6.1 0 11.8-14 11.8-29zM187.3 79.8l13-73.8h-.7l-27.3 12.4-1.3 7.5h4c1.6 0 2.1.5 1.8 2.1l-9 51c-.8 4.4-2.3 6.1-5.7 6.1h-.3l-1.6 8.7h1c3.6 0 7.4 2.6 7.4 7.5 0 4.8-4.4 9.6-16.9 9.6-17.9 0-33.9-8.5-46.2-20.7-8.8-8.8-15.9-19.8-20-30.8 15-5.9 22.9-16.6 22.9-29.5 0-6.2-2.1-11.4-6.1-15.5C95.9 8 84.6 4.6 68.6 4.6c-36.8 0-64.7 13-64.7 30 0 2.7 1 5.2 2.7 6.9 1.7 1.7 4.2 2.7 7.3 2.7 5.5 0 11.1-3.6 12-9.2.8-3.9-.5-7.1-3.2-8.8 3.9-2.9 9.4-5.1 16.1-6.6L27.1 86.2c-1.2 6.5-2.7 8.7-10.5 9.4l-1.6 9.1c6.8-.5 13.5-.9 20.3-.9 7.4 0 14.3.4 21.1.9l1.6-9.1c-7.4-.5-9.5-2.7-8.3-9.2L53.6 64h8.1C65.6 75.6 72.1 86.2 80 94.2c17.8 17.8 42.3 28.7 73.8 28.7 25.5 0 35.1-7.8 35.1-17.6 0-2.6-1.2-4.8-3-6.6-2.1-2.1-4.9-3.6-7.7-4.8-.3-.1 0-.1 0-.1h11.4l1.6-8.7h-.2c-3.3-.1-4.4-1.5-3.7-5.3zm-127-28.2c-1.3 0-2.9 0-4.4-.1L62 17c1.8-.1 3.6-.1 5.5-.1 12.7 0 17.8 4.7 17.8 13.5-.1 11.1-6.3 21.2-25 21.2zm493.1 42.2 1.6-8.7h.3c3.4 0 4.9-1.7 5.7-6.1l4.3-24.4c.3-1.6-.3-2.1-1.8-2.1h-4l1.3-7.5 25.9-11.3h.7l-1.7 10.1 1.7-1.3c6.9-5.2 12.4-8.8 18.7-8.8 8.6 0 12.9 6.8 11.2 17.7L612.2 80c-.7 3.8.4 5.2 3.8 5.2h.3l-1.6 8.7h-29.4l1.6-8.7h.3c3.4 0 4.9-1.7 5.7-6.1l4.2-23.4c.7-3.6-.7-4.9-2.6-4.9-1.3 0-2.6.8-4.4 2.2l-5.5 4.2-4 22.9c-.6 3.8.4 5.2 3.8 5.2h.3l-1.6 8.7h-29.7v-.2zm120.5-12.5c-7.5 6.9-17.2 14.2-29.9 14.2-7.2 0-12.6-1.9-16.4-5.7-3.8-3.8-5.9-9.5-5.9-16.9 0-22.5 15-39.3 34.8-39.3 6.8 0 12 2 15.7 5.7 3.5 3.5 5.6 8.5 5.6 14.4 0 2-.3 4-.8 6.2l-35.6 14.2c.9 3.9 4 6.1 8.8 6.1 5.3 0 12-3 18.1-7.8l5.6 8.9zM642 62.4l14.8-6.2c.6-2.3.8-4.3.8-5.9 0-4-1.4-5.9-3.8-5.9-5.2.1-9.8 8-11.8 18z" class="gl-st1"/></svg>