<svg xmlns="http://www.w3.org/2000/svg" xmlns:xlink="http://www.w3.org/1999/xlink" xml:space="preserve" id="Layer_1" x="0" y="0" version="1.1" viewBox="0 0 1200 266"><style>.st-2{fill:#cb0017}.st3{fill:#fff}</style><path d="M308.9 173.2v-1.8l1.4-.5c4.4-1.5 4.4-1.8 4.4-9.8v-54c0-8 0-8.3-4.4-9.8l-1.4-.5V95h49.7c23.9 0 34 7.7 34 21.7 0 9-3.8 16.2-10.5 19.2v.3c4.1 11.3 9.5 23.2 14 30.1 2 3 2 3.3 4.8 4.5l1 .5v1.8h-39c-5-10.1-9.7-23.2-12.4-34.3h-2.1V161c0 8 0 8.2 4.4 9.8l1.2.5v1.8h-45.1zm49.9-56.5c0-13.2-2-17.7-7.1-17.7-1.2 0-2.5.2-3.3.5v35.8c.5.1 1.6.2 2.1.2 6 0 8.3-4.1 8.3-18.8zm101.7 32.4h-1.6c-1.2-3.6-2.8-7.7-4.1-9.9-1.9-3.5-3.4-4.6-8.5-4.6h-1.9V163c0 5.3 1.6 6.5 7.2 6.5 6.8 0 8.7-1.7 12.8-8.1 3.5-5.4 6.4-11.9 9.2-18.6h1.6l-1.5 30.4h-69.2v-1.8l1.4-.5c4.4-1.5 4.4-1.8 4.4-9.8v-54c0-8 0-8.3-4.4-9.8l-1.4-.5V95h67.2l.9 27.3H471c-2.8-5.3-6.5-11.9-9.7-16.5-3.6-5.1-5.9-7.1-10.9-7.1-2.4 0-4.8.2-6.1.6V131h1.9c5.1 0 6.5-1 8.5-4.4 1.4-2.4 2.8-6.2 4.1-9.7h1.6v32.2zm24.5-14.3c0-28.2 20.5-41 46.2-41 9 0 16.4.9 22.2 2.6l2.4 27.2h-1.7c-4.5-7.7-10.4-16.1-13.3-19.8-3.9-5.1-6.2-6.9-9.5-6.9-7.8 0-10.7 8.4-10.7 35.7 0 30.8 4.2 39 11.9 39 4.6 0 7.3-2.8 11-8.1 4.2-5.9 7.8-12.7 11.4-19.7h1.7l-1.6 26.6c-7.4 2.8-16.2 4.3-26.1 4.3-27.8-.1-43.9-14.6-43.9-39.9zm81.8.4c0-30.1 25-41.4 42.7-41.4 19.5 0 42.5 9.4 42.5 39.3 0 30.4-25.1 41.5-42.8 41.5-19.4 0-42.4-11.5-42.4-39.4zm49.6.7c0-33.6-1.6-39.1-7-39.1s-7 6-7 35.5c0 32.8 1.6 39.2 7 39.2 5.4.1 7-6.8 7-35.6zm59.8 37.3h-16.1v-1.8l1.6-.6c4.1-1.5 4.4-2.3 4.4-9.7v-54c0-8 0-8.6-4.4-9.8l-1.6-.5V95h39.2l9.7 30.1h.3l10-30.1h39.9v2l-1.5.5c-4.5 1.4-4.5 1.8-4.5 9.8v54c0 8 0 8.4 4.5 9.8l1.5.5v1.8h-46.4v-1.8l1.6-.5c4.5-1.2 4.7-1.8 4.7-9.8V109h-.5l-21 62.6h-7L670.2 109h-.5v52.3c0 7.4.2 8.1 4.6 9.7l1.7.6v1.6zm106.6 0h-16.1v-1.8l1.6-.6c4.1-1.5 4.4-2.3 4.4-9.7v-54c0-8 0-8.6-4.4-9.8l-1.6-.5V95h39.2l9.7 30.1h.3l10-30.1h39.9v2l-1.5.5c-4.5 1.4-4.5 1.8-4.5 9.8v54c0 8 0 8.4 4.5 9.8l1.5.5v1.8h-46.4v-1.8l1.6-.5c4.5-1.2 4.7-1.8 4.7-9.8V109h-.5l-21 62.6h-7L776.8 109h-.5v52.3c0 7.4.2 8.1 4.6 9.7l1.7.6v1.6zM929 149.1h-1.6c-1.2-3.6-2.8-7.7-4.1-9.9-1.9-3.5-3.4-4.6-8.5-4.6H913V163c0 5.3 1.6 6.5 7.2 6.5 6.8 0 8.7-1.7 12.8-8.1 3.5-5.4 6.4-11.9 9.2-18.6h1.6l-1.5 30.4h-69.2v-1.8l1.4-.5c4.4-1.5 4.4-1.8 4.4-9.8v-54c0-8 0-8.3-4.4-9.8l-1.4-.5V95h67.2l.9 27.3h-1.6c-2.8-5.3-6.5-11.9-9.7-16.5-3.6-5.1-5.9-7.1-10.9-7.1-2.4 0-4.8.2-6.1.6V131h1.9c5.1 0 6.5-1 8.5-4.4 1.4-2.4 2.8-6.2 4.1-9.7h1.6v32.2zm99.5-52.1-1.6.6c-4.1 1.5-4.6 2.3-4.6 9.7v66h-18.8l-40.6-57.9h-.5v45.9c0 7.4.5 8.1 5.2 9.5l2.8.8v1.8h-17.7v-1.8l1.5-.6c4.3-1.7 4.4-2.3 4.4-9.7v-54c0-7.4-.2-8.1-4.4-9.7l-1.5-.6v-1.8h37.9l27.4 38.4h.5v-27c0-6.8-.6-7.3-5.7-8.9l-2.3-.7v-1.8h18V97zm7.3 74.4 1.4-.5c4.4-1.5 4.4-1.8 4.4-9.8v-54c0-8 0-8.3-4.4-9.8l-1.4-.5V95h44.7c28.4 0 43.3 12.2 43.3 36.6 0 26.3-16.1 41.5-43.3 41.5h-44.7v-1.7zm52.5-36.6c0-30.1-3.2-35.9-9.5-35.9-1.2 0-2.5.2-3.3.6v64.3c0 4.4 1.4 5.9 4.3 5.9 5.4-.1 8.5-7 8.5-34.9zm46.9 36-1.7-24.6h1.7c3.5 5.7 6.8 10.9 10.9 16.1 5.7 7.1 9.8 9.2 14.8 9.2 6.8 0 11.2-3.7 11.2-9.2 0-6.4-5.2-10-17.2-14.5-17.7-6.6-22.4-14.5-22.4-27 0-15.5 12.5-26.9 34.3-26.9 8.7 0 16.4 1.2 22.9 3.7l1 22.4h-1.7c-3.6-5.9-7.9-11.7-11.2-15.7-4.7-5.7-8.2-7.4-12.3-7.4-5.7 0-10.1 3.2-10.1 8.7 0 5.7 4.8 8.3 17.5 12.7 17.6 6.2 23.2 14.5 23.2 27 0 16.8-14.3 29.3-36.1 29.3-10.2 0-17.9-1.2-24.8-3.8z"/><defs><path id="SVGID_1_" d="M4.2 4.7h256.2v256.2H4.2z"/></defs><clipPath id="SVGID_00000012436028094019688070000018249639550782694333_"><use xlink:href="#SVGID_1_" overflow="visible"/></clipPath><g id="Path_4081" clip-path="url(#SVGID_00000012436028094019688070000018249639550782694333_)"><path d="M260.4 132.8c0 11-11 20.5-13.7 30.7-2.8 10.5 1.9 24.2-3.5 33.4-5.4 9.4-19.6 12.1-27.2 19.7s-10.3 21.8-19.7 27.2c-9.2 5.3-22.9.6-33.4 3.4-10.2 2.7-19.6 13.7-30.7 13.7s-20.5-11-30.7-13.7c-10.5-2.8-24.2 1.9-33.4-3.4-9.4-5.4-12.1-19.6-19.7-27.2-7.6-7.6-21.8-10.3-27.2-19.7-5.3-9.2-.6-22.9-3.4-33.4-2.7-10.2-13.7-19.6-13.7-30.7s11-20.5 13.7-30.7C20.7 91.6 16 78 21.3 68.8c5.4-9.4 19.6-12.1 27.2-19.7s10.3-21.8 19.7-27.2c9.2-5.3 22.9-.6 33.4-3.4 10.2-2.7 19.6-13.7 30.6-13.7s20.5 11 30.7 13.7c10.5 2.8 24.2-1.9 33.4 3.4 9.4 5.4 12.1 19.6 19.7 27.2s21.8 10.3 27.2 19.7c5.3 9.2.6 22.9 3.5 33.4 2.7 10.2 13.7 19.6 13.7 30.6" class="st-2"/></g><g id="Path_4082" clip-path="url(#SVGID_00000012436028094019688070000018249639550782694333_)"><path d="M132.3 221.2c-48.7 0-88.3-39.6-88.3-88.3 0-48.7 39.6-88.3 88.3-88.3 48.7 0 88.3 39.6 88.3 88.3 0 23.6-9.2 45.8-25.9 62.5-16.6 16.6-38.8 25.8-62.4 25.8zm0-169.9c-44.9 0-81.5 36.6-81.5 81.5s36.6 81.5 81.5 81.5c21.8 0 42.2-8.5 57.6-23.9s23.9-35.9 23.9-57.6c0-21.8-8.5-42.2-23.9-57.6-15.4-15.4-35.8-23.9-57.6-23.9z" class="st3"/></g><defs><path id="SVGID_00000181799366873620022240000006247367498807707069_" d="M45.6 132.8c0 47.9 38.8 86.7 86.7 86.7s86.7-38.8 86.7-86.7-38.8-86.7-86.7-86.7c-47.9 0-86.7 38.8-86.7 86.7"/></defs><clipPath id="SVGID_00000152956254423999279940000000959674546967446958_"><use xlink:href="#SVGID_00000181799366873620022240000006247367498807707069_" overflow="visible"/></clipPath><g id="Path_4084" clip-path="url(#SVGID_00000152956254423999279940000000959674546967446958_)"><path d="M132.5 44.1c24.4 0 51.9 10.8 68.4 32.5-1.7.4-3.5.6-5.3.5-6.6-.3-12.3-2.2-19.6-2.2-17.5 0-30.4 10.2-30.7 24.6-.4 6.8 2.1 13.5 6.9 18.4 2.3 2.2 4.7 4.1 7.4 5.9 2.6 1.8 5.4 3.6 8.2 5.4 6.3 4.1 9.8 6.9 9.7 13.6-.1 7-4.9 11.3-13.8 11.3-13.6 0-19.8-6.2-22.7-19.6l-10.8 2.6c1.6 7.4 3.5 17.7 4.8 26.6l1.6.9c1.9-1 3.9-1.6 6.1-1.6 2.8.2 5.5.7 8.1 1.5 3.8 1 7.8 1.5 11.7 1.5 19.9 0 35.5-9.3 35.8-27.7.2-11-5.8-17.6-15.3-24.3l-10.4-7.4c-6-4.2-7.8-6.2-7.7-11 .1-5 5.3-9 13.1-9 7.6 0 12.8 2.9 12.7 7.4-.1 2.5-.5 5.1-1.3 7.5h10.4c1.1-6.9 2.6-13.8 4.4-20.6 10.7 15.1 16.4 33.2 16.4 51.8.4 14.5-3.2 28.9-10.5 41.5-3.4-7.5-10.1-10.9-19-11.6-2.7-.2-4.5-.1-4.5 1.2 0 .8 1.8 1.4 3 2.9 2 2.2 3 5.2 2.9 8.1 0 6.2-6.1 11.2-18.4 11.2-27 0-48.1-20.5-56.7-47.4 11.3-3.9 21.9-12.8 21.9-26.8 0-17-15.6-23.6-37.1-23.6-10.6.1-21.2 1.1-31.7 3-7 1.4-16.8 4.3-21.4 10.5 12.6-35 46.1-58.2 83.4-57.6" class="st-2"/></g><g id="Path_4085" clip-path="url(#SVGID_00000152956254423999279940000000959674546967446958_)"><path d="M54.1 116.9c3 0 5.9-1.1 8-3.3.3-.3.5-.8.5-1.3-.1-.7-.4-1.4-.9-2-.3-.5-.5-1.1-.4-1.7 0-1.7 2.5-3.8 4.8-4.7 2.8-1.1 5.6-1.9 8.6-2.4l-10.3 62.1c-.3 2.1-1.8 3.8-3.9 4.3-1 .3-2.1.6-3.1.7-1.2.1-2.4.1-4.2.2l-.3 2.4c-5.9-12-9-25.3-8.8-38.7 0-7.6.9-15.2 2.8-22.7.1 4 3.3 7 7.2 7.1" class="st-2"/></g><g id="Path_4086" clip-path="url(#SVGID_00000152956254423999279940000000959674546967446958_)"><path d="M117.7 112.6c0 11.3-10.8 19.7-23.8 19.7-.9 0-2.6.1-3.6 0l5.4-33.5c2.7-.3 5.4-.4 8.1-.4 7.4-.3 13.5 5.5 13.8 12.9.2.4.2.9.1 1.3" class="st-2"/></g><g id="Path_4087" clip-path="url(#SVGID_00000152956254423999279940000000959674546967446958_)"><path d="M194.6 195c-34.4 34.6-90.4 34.7-124.9.2-5-5-9.5-10.6-13.1-16.7 6.1-.3 9.8-.4 15.9-.5 7.6 0 15.3.3 22.1.8l2-10-4.8-.3c-6.9-.5-7-1.7-6.4-5.6l3.3-20.4h7.5c9.6 32.4 37.5 55.1 79.7 55.1 6.3.2 12.7-.7 18.7-2.6" class="st-2"/></g><defs><path id="SVGID_00000013901972630530869320000005258518578872710827_" d="M4.2 4.7h256.2v256.2H4.2z"/></defs><clipPath id="SVGID_00000175301050095820683790000003183982941747675812_"><use xlink:href="#SVGID_00000013901972630530869320000005258518578872710827_" overflow="visible"/></clipPath><g id="Path_4089" clip-path="url(#SVGID_00000175301050095820683790000003183982941747675812_)"><path d="M132.3 221.2c-48.7 0-88.3-39.6-88.3-88.3 0-48.7 39.6-88.3 88.3-88.3 48.7 0 88.3 39.6 88.3 88.3 0 23.6-9.2 45.8-25.9 62.5-16.6 16.6-38.8 25.8-62.4 25.8zm0-169.9c-44.9 0-81.5 36.6-81.5 81.5s36.6 81.5 81.5 81.5c21.8 0 42.2-8.5 57.6-23.9s23.9-35.9 23.9-57.6c0-21.8-8.5-42.2-23.9-57.6-15.4-15.4-35.8-23.9-57.6-23.9z" class="st3"/></g><circle cx="132.3" cy="132.7" r="81.1" class="st-2"/><path d="M62 163.7c6.6-.5 7.9-2.4 8.9-7.9l9.9-56.1c-4.8 1.2-8.8 2.7-11.7 4.7 2.2 1.4 3.2 4.2 2.5 7.2-.8 4.7-5.5 7.8-10.1 7.8-2.6 0-4.7-.9-6.1-2.3-1.4-1.4-2.3-3.5-2.3-5.8C53 97.6 75.9 87 106 87c14 0 23.6 2.8 28.9 8.2 3.4 3.4 5.2 7.8 5.2 13 0 11.3-7.1 20.6-20.1 25.2 5.3 23.9 22.5 57.1 47.7 57.1 5.2 0 8.4-2.5 8.4-6.6 0-2-1.1-3.2-2.3-3.7.7-2.6 3.8-4.6 9.3-4.6 3.2 0 6.2 1.2 8.3 3.3 1.6 1.6 2.6 3.8 2.6 6.6 0 9.6-9.2 15.1-25.4 15.1-17.6 0-32.8-7.1-44.5-18.9-12.1-12.1-20.1-27.4-23.8-44.8h-7.2l-3.3 18.9c-1 5.5.8 7.3 7 7.8l-1.3 7.7c-5.7-.4-11.5-.8-17.8-.8-5.7 0-11.4.3-17.1.8l1.4-7.6zm38.2-66.2L95 126.4c1.5.1 3 .2 4.3.2 15.8 0 21-8.5 21-17.9 0-7.5-4.3-11.4-15.6-11.4-1.5.1-3 .1-4.5.2z" class="st3"/><path d="M137.9 165.5c.5-7.3.8-17 .7-24.1h8.4c.7 6.7 3 12.3 6.2 15.6 3.5 3.5 7.3 5.2 12.6 5.2 7.2 0 12.2-4.8 12.2-11.1 0-4.5-2.3-6.8-6.8-10.1l-11.4-8.3c-2.3-1.8-4.5-3.5-6.2-5.2-4.5-4.4-6.6-8.9-6.6-15.6C147 97 159.2 87 176.7 87c11.5 0 14.1 2.6 24.8 2.3-1.5 5.5-3.6 15-4.7 21.3h-8.5l.3-1.9c.7-3.5-.2-6.7-2.3-8.8-2-2-5.3-3.1-9.3-3.1-7.9 0-12.7 3.6-12.7 9.6 0 4.3 2.3 7 6.9 10.3l11.4 8.3c2.4 1.8 4.4 3.5 6.2 5.3 5 4.8 7.3 9.8 7.3 15.9 0 15.6-12.5 26-30.6 26-14.8.1-20.4-7-27.6-6.7z" class="st3"/></svg>