<svg xmlns:xlink="http://www.w3.org/1999/xlink" viewBox="0 0 61.559 109.438" id="subscribe-mega" xmlns="http://www.w3.org/2000/svg" width="61.559"  height="109.438" ><g data-name="Group 10045"><path data-name="Path 44422" d="M27.966 15.428a24.33 24.33 0 01-4.551-8.692C22.286 3.23 20.158-.046 15.923-.002a6.714 6.714 0 00-6.646 6.738c.008 5.8 5.752 8.691 12.93 11.354 3.631 1.347 7.258 2.6 9.831 3.458A197.742 197.742 0 01.554 17.029v10.763a197.934 197.934 0 0131.484-4.522c-2.573.859-6.2 2.111-9.831 3.458-7.179 2.663-12.922 5.554-12.93 11.354a6.713 6.713 0 006.646 6.738c4.234.044 6.363-3.231 7.492-6.738a24.331 24.331 0 014.551-8.692c2.53-2.939 5.771-5.392 13.8-6.982-8.033-1.588-11.274-4.041-13.8-6.98z" fill="#fff"></path><g data-name="Group 10019"><g data-name="Group 10018" fill="#d71920"><g data-name="Group 10017"><path data-name="Path 44405" d="M-.001 50.499v26.729l29.5-3.568v5.482l32.06-3.878V43.052z"></path><path data-name="Path 44406" d="M-.001 109.442l29.5-3.568V79.142l-29.5 3.568z"></path></g><path data-name="Path 44407" d="M-.001 77.228v5.481l29.5-3.568V73.66z"></path></g><path data-name="Path 44408" d="M3.432 75.862l.014-2.4 2.295-.282.007 2.569c-.019.687.182.935.589.885s.506-.335.482-1.087l-.006-1.164c-.008-2.293-.274-3.63-1.614-8.125-1.234-4.2-1.708-5.818-1.711-8.351l-.006-.891c0-1.986.875-2.916 2.663-3.135 1.957-.241 3.023.622 3.018 2.54l.012 2.328-2.329.287-.011-2.328c.031-.587-.167-.8-.5-.76s-.49.2-.475.88l.007.889c.012 2.054.272 3.049 1.623 7.645 1.231 4.164 1.695 5.991 1.715 8.66l.009 1.473c.009 2.019-.8 2.974-2.723 3.211-1.622.199-3.046-.518-3.059-2.844z" fill="#fff"></path><path data-name="Path 44409" d="M15.784 52.868l.012 21.851c0 1.953-.669 2.926-2.727 3.178-1.822.225-3.153-.572-3.17-2.658l.014-21.651 2.4-.293-.018 21.647c.011.649.217.932.623.883.337-.041.48-.266.491-1.02l-.021-21.644z" fill="#fff"></path><path data-name="Path 44410" d="M16.662 52.761l2.733-.336c2.025-.249 2.938.5 2.921 2.314l.01 7.328a1.932 1.932 0 01-1.591 2.113c1.169.028 1.762.674 1.759 2.045v7.535c-.006 2.193-.711 2.862-2.8 3.12l-3.036.372zm2.77 22.266c.575-.07.706-.4.711-1.184v-7.535c.015-.995-.313-1.16-.853-1.094l-.3.038.009 9.829zm-.02-11.608c.54-.067.65-.286.651-1.108l-.017-7.123c.01-.755-.218-.932-.724-.869l-.3.037-.011 9.112z" fill="#fff"></path><path data-name="Path 44411" d="M23.04 73.454l.013-2.4 2.3-.282.006 2.568c-.017.688.184.937.589.887s.507-.336.484-1.087l-.006-1.164c-.008-2.294-.275-3.631-1.615-8.124-1.235-4.2-1.708-5.819-1.711-8.353l-.005-.891c0-1.985.874-2.915 2.663-3.135 1.957-.24 3.022.623 3.017 2.541l.012 2.328-2.328.286-.012-2.329c.03-.586-.167-.8-.505-.759s-.488.2-.473.881l.006.888c.012 2.055.272 3.05 1.624 7.645 1.23 4.165 1.695 5.992 1.714 8.662l.009 1.471c.009 2.02-.8 2.975-2.722 3.211-1.625.199-3.048-.516-3.06-2.844z" fill="#fff"></path><path data-name="Path 44412" d="M29.447 72.633l.007-18.634c0-2.227.889-3.089 2.777-3.321 1.756-.215 3.01.52 3.031 2.641l-.035 2.231-2.328.287V53.61c.023-.654-.145-.907-.516-.862-.406.05-.511.3-.521 1.057l-.007 18.637c.024.75.227 1 .63.95.338-.042.478-.3.463-.981l-.008-2.569 2.328-.286-.009 2.708c-.009 2.159-.728 3-2.55 3.225-1.89.228-3.271-.697-3.262-2.856z" fill="#fff"></path><path data-name="Path 44413" d="M35.896 50.399l2.7-.332c2.227-.273 3.035.724 3.052 2.537l-.025 7.608c.006 1.164-.131 1.728-.9 2.165l1.1 11.784-2.4.294-.97-11.527-.2.026-.01 11.646-2.361.289zm2.768 10.826c.541-.066.617-.281.609-.9l.013-7.435c.018-.687-.247-.894-.687-.841l-.337.042v9.18z" fill="#fff"></path><path data-name="Path 44414" d="M42.444 49.595l2.4-.294-.012 24.491-2.4.295z" fill="#fff"></path><path data-name="Path 44415" d="M45.75 49.189l2.733-.336c2.026-.248 2.939.5 2.921 2.314l.01 7.329a1.934 1.934 0 01-1.59 2.113c1.168.027 1.762.674 1.758 2.044v7.535c-.005 2.193-.711 2.862-2.8 3.119l-3.036.373zm2.769 22.267c.574-.071.705-.395.71-1.184v-7.535c.015-1-.313-1.16-.853-1.094l-.3.037.008 9.829zm-.021-11.61c.539-.065.649-.285.652-1.107l-.018-7.122c.009-.756-.218-.932-.724-.87l-.3.037-.011 9.113z" fill="#fff"></path><path data-name="Path 44416" d="M52.398 48.373l4.556-.56.009 2.02-2.194.269v8.906l1.823-.223v1.985l-1.822.225.008 9.554 2.362-.289-.026 2.024-4.723.58z" fill="#fff"></path><path data-name="Path 44417" d="M3.865 81.333l2.328-.286 1.286 10.186.487 4.8-.109-4.508-.01-10.686 1.923-.236-.007 24.49-2.091.258L6.161 93.89l-.508-4.7.117 4.3.012 12.089-1.924.236z" fill="#fff"></path><path data-name="Path 44418" d="M10.597 102.12l.019-18.807c-.007-2.295 1.023-3.105 2.745-3.316 1.923-.237 3.156.605 3.151 2.8l-.019 18.806c0 2.193-.833 2.98-2.69 3.208-1.821.221-3.186-.569-3.206-2.691zm3.509-.431l-.013-18.8c.022-.653-.176-.868-.546-.822-.406.049-.516.268-.535.955l-.02 18.808c.02.717.222.965.626.915.338-.045.481-.268.488-1.056z" fill="#fff"></path><path data-name="Path 44419" d="M16.857 79.737l2.363-.289.346 10.918.15 5.119.217-5.2.6-11 1.721-.211.629 10.713.276 5.308.07-5.283.34-10.9 2.193-.27-1.187 24.637-2.4.295-.643-10.607-.218-4.289-.161 4.268-.621 10.831-2.395.294z" fill="#fff"></path></g></g></svg>