<svg xmlns:xlink="http://www.w3.org/1999/xlink" xmlns="http://www.w3.org/2000/svg" viewBox="0 0 421.291 98.115" style="height:100%" width="421.291"  height="98.115" ><path data-name="Path 2511" d="M400.157 37.746l-2.864 9.313c-5.224 17.109-12.849 22.056-17.19 22.056-3.631 0-5.126-2.621-5.126-8.619 0-17.084 11.158-37.637 19.7-37.637 4.28 0 8.198 5.871 5.48 14.887zm21.089-37c.142-.49-.061-.744-.44-.744h-16.969a.708.708 0 00-.759.711c0 .318.175.5.428.5h7.749l-9.045 29.7c-.28-5.744-3.8-9.488-9.036-9.488-12.881 0-26.718 16.191-26.718 31.566 0 12.065 6.753 17.443 12.936 17.443 5.311 0 10.9-4.214 14.986-12.539-1.58 8.622 2.1 12.539 7.7 12.539 4.065 0 8.175-2.8 14.037-16.972.194-.467-.042-.774-.514-.774a.653.653 0 00-.656.461c-5.578 12.817-8.7 14.965-10.751 14.965-1.956 0-3.03-1.441-1.012-8.232zm-91.622 58.256c0-8.844 4.628-25.76 11.553-32.91a9.79 9.79 0 017.2-3.412c4.2 0 7.192 2.6 7.192 10.179 0 8.844-4.629 25.758-11.552 32.91a9.793 9.793 0 01-7.2 3.413c-4.205 0-7.193-2.6-7.193-10.18zm34.381-18.6c0-11.2-7.835-18.98-16.34-18.98-14.248 0-26.48 14.818-26.48 30.031 0 11.2 7.834 18.978 16.339 18.978 14.251.004 26.481-14.814 26.481-30.025zm-68.356-14.31a9.794 9.794 0 017.2-3.412c4.2 0 7.192 2.6 7.192 10.179 0 8.844-4.63 25.758-11.554 32.91a9.787 9.787 0 01-7.193 3.413c-4.206 0-7.193-2.6-7.193-10.18-.004-8.844 4.623-25.76 11.548-32.91zm-3.652 44.343c14.248 0 26.481-14.818 26.481-30.029 0-11.2-7.835-18.98-16.34-18.98-14.249 0-26.482 14.818-26.482 30.031 0 11.197 7.835 18.978 16.341 18.978zm-23.842-48.742a5.275 5.275 0 10-.1 10.549 5.133 5.133 0 004.8-3.266 18.544 18.544 0 01.27 3.186c0 16.119-13.839 36.322-23.561 36.322-3.313 0-5.6-2.1-2.514-10.951l10.767-34.908h-9.81l-6.781 22.064c-5.164 16.422-12.823 23.795-17.335 23.795-3.052 0-4.841-2.236-2.512-9.8l10.713-35.311c.14-.488-.063-.744-.442-.744h-16.282a.709.709 0 00-.758.713c0 .318.174.5.428.5h7.063l-8.989 29.351c-3.463 11.258 1.782 17.246 9.538 17.246 5.514 0 11.382-5.99 15.575-15.06-1.8 9.248 2.743 15.06 9.479 15.06 14.192 0 26.981-23.2 26.981-38.687 0-7.498-2.791-10.059-6.53-10.059zm-107.576 31a.651.651 0 00-.654.461c-5.578 12.817-8.7 14.965-10.751 14.965-1.957 0-3.03-1.441-1.014-8.232L166.228.748c.141-.49-.062-.744-.442-.744h-16.282a.708.708 0 00-.758.711c0 .318.176.5.428.5h7.062L139.594 55.66c-2.719 9.967.982 14.775 7.464 14.775 4.064 0 8.174-2.8 14.037-16.972.192-.467-.042-.774-.52-.774zm-25.134 0a.653.653 0 00-.655.461c-5.577 12.817-8.7 14.965-10.751 14.965-1.957 0-3.029-1.441-1.013-8.232L141.093.748c.141-.49-.062-.744-.441-.744H124.37a.708.708 0 00-.758.711c0 .318.175.5.427.5h7.063L114.459 55.66c-2.718 9.967.983 14.775 7.465 14.775 4.064 0 8.174-2.8 14.037-16.972.192-.467-.043-.774-.516-.774zm-43.33 13.08a9.785 9.785 0 01-7.194 3.413c-4.206 0-7.193-2.6-7.193-10.18 0-8.844 4.627-25.758 11.553-32.91a9.788 9.788 0 017.194-3.412c4.206 0 7.193 2.6 7.193 10.179 0 8.84-4.629 25.754-11.553 32.906zm3.653-44.343c-14.248 0-26.481 14.818-26.481 30.031 0 11.2 7.836 18.978 16.34 18.978 14.249 0 26.48-14.818 26.48-30.029 0-11.203-7.832-18.984-16.339-18.984zm-29.4 46.6h-9.031L77.769 1.216h8.393a.707.707 0 00.758-.711c0-.318-.174-.5-.427-.5H59.167a.708.708 0 00-.758.711c0 .318.175.5.428.5h8.4l-9.908 32.409H30.175l9.912-32.414h7.795A.708.708 0 0048.64.5c0-.32-.174-.5-.428-.5H20.885a.708.708 0 00-.758.711c0 .318.175.5.428.5h9.005L9.128 68.025H.759a.708.708 0 00-.759.713c0 .319.175.5.428.5h27.326a.708.708 0 00.758-.711c0-.318-.174-.5-.428-.5h-8.429l10.149-33.191h27.155L46.81 68.025h-7.769a.707.707 0 00-.758.713c0 .319.174.5.427.5h27.326a.708.708 0 00.758-.711c0-.32-.175-.502-.428-.502zm100.587-44.692c0 .242.121.392.311.412a10.02 10.02 0 001.33.086h5.728l-.145.865-8.737 28.432c-3.438 11.426 1.829 17.236 9.454 17.3a8.467 8.467 0 001.11-.061c4.928-.582 10.148-5.518 14.367-14.492.008-.016-.108.371-.1.355l-7.267 23.5c-3.915 13.008-8.613 16.834-13.7 16.969a18.647 18.647 0 01-3.115-.182c-3.695-.535-6.369-2.093-7.757-4.326a5.3 5.3 0 003.454.942 5.436 5.436 0 004.036-2.364 5.5 5.5 0 00.912-3.441 5.432 5.432 0 00-2.633-4.305 5.371 5.371 0 00-3.083-.734 5.474 5.474 0 00-4.705 3.435 6.834 6.834 0 00-.495 2.9c.181 4.844 4.649 8.617 11.046 9.25a20.6 20.6 0 002.116.1c9.835-.071 19.762-5.014 24.9-21.858l16.353-53.496h-9.812l-4.582 14.924c-.061.2-1.495 4.861-1.56 5.047-5.806 18.726-13.266 25.755-17.957 25.879a5.083 5.083 0 01-1.029-.08c-2.479-.477-3.556-3.049-1.976-8.516l11.017-36.508c.1-.363-.041-.56-.291-.592a9.911 9.911 0 00-1.759-.152h-13.574c-.058 0-1.207.019-1.238.051a.653.653 0 00-.619.66zm69.586 57.291l-1.253 4.051h10.336l-1.328 4.341h-10.351l-1.308 4.231h12.976l-1.339 4.4h-19.013l6.551-21.428h19.015l-1.348 4.4zm-19.69-.375h-5.942l-1.832 5.994h5.471c2.463 0 4.023-.727 4.685-2.885l.059-.189c.583-1.906-.18-2.92-2.441-2.92zm8.564 3.4l-.16.524c-.9 3.027-3.149 4.867-6.769 5.548l3.813 7.926h-6.376l-3.247-7.361h-4.835l-2.249 7.361h-6.052l6.553-21.428h12.223c6.173.002 8.436 3.057 7.099 7.432zm91.063-3.4h-5.942l-1.832 5.994h5.471c2.463 0 4-.727 4.658-2.885l.059-.189c.583-1.906-.153-2.92-2.417-2.92zm8.564 3.4l-.161.524c-.9 3.027-3.15 4.867-6.768 5.548l3.813 7.926h-6.376l-3.248-7.361h-4.834l-2.249 7.361h-6.052l6.553-21.428h12.223c6.173.002 8.432 3.057 7.099 7.432zm62.7-3.4H381.8l-1.832 5.994h5.471c2.462 0 4.024-.727 4.685-2.885l.058-.189c.582-1.906-.179-2.92-2.441-2.92zm8.564 3.4l-.16.524c-.9 3.027-3.15 4.867-6.769 5.548l3.813 7.926h-6.377l-3.247-7.361h-4.834l-2.25 7.361h-6.05l6.552-21.428h12.224c6.172.002 8.435 3.057 7.097 7.432zm-24.81-3.027l1.348-4.4h-19.015l-6.554 21.427h19.014l1.339-4.4h-12.975l1.309-4.231h10.351l1.328-4.341h-10.337l1.254-4.051zm-106.3-.375h-5.4l-2.021 6.623h5.072c2.56 0 4.1-.848 4.716-2.875l.144-.475c.722-2.367.048-3.271-2.511-3.271zm8.713 3.594l-.24.767c-1.317 4.323-4.269 6.305-10.194 6.305h-6.937l-2.057 6.734h-6.051l6.551-21.428h11.268c6.826.002 8.975 3.331 7.66 7.624zm75.039-3.219l1.348-4.4h-21.2l-1.348 4.4h7.8l-5.211 17.025h6.083l5.21-17.025zm-154.9-64.186l2.034-6.656h6.393l-2.034 6.656h4.817l5.027-16.443h-4.81l-1.92 6.281h-6.393l1.921-6.281h-4.818l-5.028 16.443zm-17.324 0h4.808l3.943-12.89h5.289l1.085-3.553h-16.14l-1.087 3.553h6.053zm46.44 0l1.087-3.554h-9.694l.9-2.9h7.943l1.073-3.506h-7.932l.907-2.933h9.656l1.091-3.553h-14.5l-5.02 16.448zm70.011 69.118c.974-3.221-.573-5.268-4.4-5.268-3.486 0-5.378 1.555-6.324 4.65l-1.042 3.381c-.974 3.221.574 5.268 4.4 5.268 3.486 0 5.378-1.555 6.324-4.651m-15.553-4.552c1.873-6.127 5.957-8.621 13.373-8.621 6.955 0 11.059 3.845 8.82 11.16L298 89.494c-1.873 6.127-5.957 8.621-13.373 8.621-6.955 0-11.059-3.846-8.82-11.16z"></path></svg>