<svg xmlns:xlink="http://www.w3.org/1999/xlink" xmlns="http://www.w3.org/2000/svg" viewBox="0 0 2703.627 521.613" style="height:100%;width:auto" width="2703.627"  height="521.613" ><g fill="#100F0D"><path d="M1262.31 189.872h-61.897l-121.708 124.49V6.963h-44.51V514.66h44.51V347.745l164.132 166.914h60.507l-180.128-183.606 139.095-141.181m215.636-6.955c-40.334 0-93.187 18.779-112.654 65.375v-58.42h-44.517v324.787h44.517V334.53c1.387-78.59 56.32-107.799 108.494-107.799 52.16 0 91.8 38.252 91.8 100.844v187.083h44.506v-189.17c0-89.716-53.546-142.572-132.146-142.572m331.32 296.274c-68.854 0-125.187-50.77-125.187-127.969 0-76.501 56.333-125.88 125.187-125.88 68.16 0 125.88 49.379 125.88 125.88 0 77.2-57.72 127.968-125.88 127.968zm0-296.273c-92.494 0-169.694 65.375-169.694 168.304 0 102.93 77.2 170.392 169.694 170.392 92.493 0 170.386-67.461 170.386-170.392 0-102.929-77.893-168.304-170.386-168.304m621 6.955l-94.587 257.327-95.28-257.327h-45.907l-94.586 258.022-95.28-258.022h-47.987l124.493 324.787h38.947l96.667-265.672L2317.6 514.659h38.947l121.013-324.787h-47.293m190.6 146.051l-47.987-11.824c-23.64-5.563-50.067-18.779-50.067-49.379 0-30.601 25.734-52.161 63.28-52.161 32 0 60.507 19.474 62.6 48.684h43.12c-2.093-58.42-52.16-88.326-106.413-88.326-61.893 0-107.107 38.251-107.107 91.108 0 54.246 36.867 77.894 82.774 89.02l46.586 11.128c33.387 8.346 51.467 25.732 51.467 52.16 0 32.688-28.507 55.64-75.107 55.64-47.293 0-72.333-27.821-77.2-54.944h-41.026c5.56 61.898 61.893 94.584 118.226 94.584 67.454 0 119.614-36.86 119.614-94.584 0-37.556-19.467-75.808-82.76-91.106m-2423.151-2.088c-16.236-30.6-42.699-66.766-47.427-89.02-4.432-20.864 3.802-41.034 36.488-41.034 22.256 0 31.931 6.26 34.591 18.778 2.808 13.214-4.504 18.084-.41 34.078 3.546 16.691 21.211 27.819 39.989 27.819 21.56 0 31.374-15.995 26.498-38.947-7.682-36.164-47.584-57.028-102.526-57.028-74.417 0-123.798 55.638-111.386 114.059 6.162 25.73 18.584 51.464 36.464 79.979 21.846 34.078 40.188 54.942 45.951 82.066 3.355 12.518 5.24 41.032-41.357 41.032-25.037 0-48.266-11.128-50.482-21.56-2.512-11.822 10.911-17.386 6.33-38.946-3.546-16.69-17.228-31.99-40.179-31.99-22.95 0-33.714 18.082-29.28 38.945 9.012 42.423 67.483 68.853 117.556 68.853 92.5 0 131.936-50.075 121.488-95.976-7.092-33.383-19.532-49.379-42.308-91.108" fill="#100F0D"></path><path d="M603.88 493.795c-6.955 0-14.648-3.478-17.013-14.606-4.728-22.256 4.601-43.814 40.317-124.489 28.535-65.376 32.005-88.325 28.016-107.103-9.648-48.684-41.77-59.116-84.89-59.116-50.769 0-110.417 46.598-144.977 119.622h-2.781l50.341-146.051c15.138-46.596 22.632-70.241 17.166-95.975-8.083-34.773-36.294-66.07-90.54-66.07-45.206 0-78.684 25.733-93.379 74.416l16.23 7.65c14.19-44.51 40.697-60.506 55.998-60.506 11.823 0 18.42 4.868 20.932 16.692 2.956 13.909-2.496 34.077-23.676 98.061L254.168 513.964c12.621-2.782 34.435-4.868 53.212-4.868 15.3 0 43.71 2.78 54.585 4.868l30.276-93.194c28.484-91.803 66.338-146.05 99.331-177.346 17.865-17.387 41.443-34.079 60.916-34.079 9.041 0 13.005 5.564 14.335 11.823 4.389 17.387-20.276 58.421-46.811 116.84-25.04 55.639-37.037 97.367-31.276 124.49 7.64 32.687 31.885 58.42 81.264 58.42 58.42 0 94.55-36.165 111.548-67.46l-15.43-10.433c-15.606 31.296-42.765 50.77-62.238 50.77m297.29-287.927c19.585 0 34.107 16.53 34.107 38.477 0 60.827-70.737 97.942-131.15 110.355 13-73.025 46.968-148.832 97.042-148.832zm98.07 42.239c0-31.982-32.217-59.626-102.46-59.626-98.41 0-209.501 87.026-209.501 191.528 0 77.546 53.601 140.91 148.684 140.91 68.385 0 131.737-43.834 156.132-100.96l-15.9-8.072c-24.87 52.61-82.314 88.862-124.348 88.862-25.038 0-41.607-12.518-49.247-45.206-5.276-21.559-5.37-51.465-1.735-83.456 69.822-13.612 198.375-53.119 198.375-123.98" fill="#100F0D"></path></g></svg>