<svg xmlns:xlink="http://www.w3.org/1999/xlink" xmlns="http://www.w3.org/2000/svg" viewBox="0 0 150 42" style="height:100%" width="150"  height="42" ><g data-name="logo Variety"><path d="M148.33 13.12l-.21.94-1.93.52a2.18 2.18 0 00-1 .78l-8.89 11.25-3.31 11c-.18.57.05.91.42 1l2.32.57-.31.94h-11.56l.31-.94 2.17-.52a1.39 1.39 0 001.1-1.15l3.31-11.14-2.9-10.88c-.13-.52-.29-.94-.83-1.1l-1.36-.37.21-.94h9.86l-.21.94-1.67.47c-.6.16-.73.47-.57 1l2.37 9.23 7-9.34a1 1 0 00.21-.52.47.47 0 00-.42-.42l-1.88-.47.26-.94z"></path><path data-name="Path" d="M125.34 19.28H124l-1.15-3.52a1 1 0 00-1.15-.83h-2.9l-6.78 22.72c-.18.57 0 .91.52 1l1.88.52-.31.94h-11.3l.31-.94 2-.47c.89-.21 1.07-.47 1.3-1.25l6.73-22.57h-3.37a1.58 1.58 0 00-1.25.78L106.19 19h-1.3l2.11-6.56h.83a1 1 0 001 .68h14.11a1.32 1.32 0 001.36-.68h.89zm-20.94-.34h-1.3l-1.25-3.37a1 1 0 00-1-.68h-5.4L92.4 25.17h5.09c.52 0 .83-.26 1.2-.78l1.41-2.06h1.3L99 30.52h-1.3l.05-2.9c0-.52-.31-.68-.83-.68h-5L88.48 38.3h7.41a1.91 1.91 0 001.88-.83l2.95-3.68h1.41l-3 7.1h-.94c-.26-.52-.63-.73-1.57-.73h-17l.31-.94 2-.52a1.4 1.4 0 001-1.15l6.52-22a.67.67 0 00-.31-.89l-1.83-.57.26-.94h14.66a1.23 1.23 0 001.15-.68h.83z"></path><path data-name="Path" d="M148.06 6a193 193 0 01-40.23 4.25c-32 0-54.5-4.36-64-6.63L3.8 41.58.54 42 12.31 6.18A43.28 43.28 0 011.22 9c-.91.1-.94-.42-.52-.65A10.46 10.46 0 006 2.27c5.77 1.41 10.12.31 15.39-1.62L10.77 30.78 39.13 0a261.16 261.16 0 0052.06 5.45c13.8 0 25.9-2.17 32.14-4.72 8.77 5.22 18.78 4.77 24.52 4.41.83-.05.94.73.21.89"></path><path data-name="Path" d="M86.37 13.12l-.26.94-2.22.63a1.11 1.11 0 00-.78.89l-6.52 21.83c-.18.65-.34 1.07.47 1.3l1.57.47-.31.94H67.87l.31-.94 1.51-.47c.86-.26 1.12-.57 1.3-1.25l6.47-21.94c.13-.47 0-.78-.37-.89l-1.72-.57.26-.94zM70.8 19.8c0 4.1-3.26 7.67-8.56 7.46a13.07 13.07 0 01-3.05-.47c0 5 1.54 10.12 4.51 10.12 1.83 0 2.37-1.54 2.63-2.84.05-.21.21-.37.47-.1a4.28 4.28 0 011.3 3.16c0 3.08-2 4.46-4.88 4.46-7.43 0-7.77-10.7-6.57-17.27.08-.37.21-.42.47-.26a6.52 6.52 0 003.57.89c2.4 0 4.67-1.9 4.67-5.35S62.5 14 58.27 14l-7 23.5a1.79 1.79 0 00-.1.57.52.52 0 00.47.57l2 .52-.31.94H42.91l.31-.94 1.57-.47c.5-.16.7-.44.94-1.2L52.66 14c-3 .63-4.46 1.75-4.46 3.47a2.93 2.93 0 00.52 1.88.94.94 0 01.16.52c0 .39-.34.73-1.3.73a2.82 2.82 0 01-3-3.1c0-1.3.81-5.71 12.29-5.71 9.73 0 13.93 3.16 13.93 8"></path><path d="M37.09 17.9L26.32 31.17h9.55zm5.56 21.31l-.31.94h-9.87l.31-.94 1.72-.47a1 1 0 00.78-1l.42-4.57H24.62L21 37.54a1.24 1.24 0 00-.37.68c0 .23.13.39.42.47l1.67.52-.31.94h-8.3l.37-.94 1.72-.42a3.4 3.4 0 001.67-1.15l22.4-26.34 2.32-.42-2.16 26.87c-.05.57 0 .94.68 1.1z"></path></g></svg>