<svg xmlns:xlink="http://www.w3.org/1999/xlink" xmlns="http://www.w3.org/2000/svg" viewBox="0 0 119.51 35.11" style="height:100%" width="119.51"  height="35.11" ><g data-name="Layer 2"><path d="M99.76 35.11c10.25 0 19.75-3.7 19.75-17.56S110 0 99.76 0h-9.23l-3.69 13.81v21.3zm-2.63-9V9h2.81c6.42 0 9.18 2.24 9.18 8.56s-2.76 8.57-9.18 8.57zm-47.65 9h10l5-18.73 5 18.73h10.1L89 0h-9.47l-4.91 19.19L69.52 0H60l-5.18 19.43-4.68-18.21-4.87 18.25 4.21 15.64zm-40.07 0h10.11l5-18.77 5 18.77h10L48.92 0H39.6l-5 19.33L29.49 0H20l-5.1 19.19L10 0H0l9.41 35.11z" data-name="Layer 1"></path></g></svg>