<svg xmlns:xlink="http://www.w3.org/1999/xlink" xmlns="http://www.w3.org/2000/svg" viewBox="0 0 294.91 133.01" style="height:100%;width:auto" width="294.91"  height="133.01" ><g data-name="Layer 2"><path class="cls-1" d="M46.13 98.14c3.4-4 14.37-27.15 17-33.87C69 49.63 73.81 29.59 90.73 23.16c6-2.27 12 5.16 8.9 9.45-4.28 5.83-10.58 10.84-13.18 18-8.75 24-14.66 38.94-25.64 57.13 4.9 3.15 8.4 5.54 14.62 7.23 19 5.15 35.17-15.21 42.26-32.09 7.37-17.53 11.22-42.22-1.32-57.91C96.11-.41 52.18 19.62 48.73 52.49c-.63 6 5.42 11.86 1.18 15.32-3.37 2.74-8.78 8.54-12.09 3.09-14-23 1.26-51.08 24-63.51s55.21-9.8 70.29 12.24C147.37 41.89 143 74.25 130.51 97c-5.1 9.26-12.92 19.8-23.43 26.81-15.51 10.37-41.54 10-56.15-3.64a53.37 53.37 0 01-10.88 9c-6.65 4.12-16.4 4.79-22.85 2.61-24.53-8.32-22-42.74 2.45-46 11.01-1.48 20.43 7.41 26.48 12.36zM17.2 112.6c2.62 3.58 9.28 5.5 13.82 2.19a37.34 37.34 0 007.24-7.09c-2.79-2.68-5.75-5.83-9.87-8.16-7.26-4.11-17.03 5.11-11.19 13.06zm-.15 10l-1 .44c-.05.83 1.67.24 1-.41zm9.43 2.65c.52.08.67-.07.59-.59-.52-.05-.67.1-.59.62zm1.91-6.34c.36-.09 1.4 0 1.33-.59-.43-.5-1.25.07-1.33.62zm3.39 3.1c-.11-.84-.15-2.14-1.32-2.07a1.37 1.37 0 001.32 2.06zm2.65-2.36l1 .29c-.09-.78-.77-1.35-1-.26zm4-4.72c.51.14 2 1.15 2.06 0-.58-.45-1.84-1.07-2.07.07zM40 116c-2.21 1.79 1 2.86 2.07 1.18 1.1-.41 2.41 1 3.39-.14.03-2.04-4.34-.8-5.46-1.04zm2.36-9.28c-1.25-.58-2-1.25-1 .59 1.66-.66 4.32-.6 1.77 1.33-.21.19-4-1.35-3 0 2 .57-1.73 2.53 1.18 4.42.63-.8.44-3.31 1.47-3.39-.34 1.08.21 2.66 1.48 1.62-.17-2.86 4.69-2.28 1.47-5.6.82 0 .94-1.48.59-2.06 3.89-.35-.07 1.78 1.18 3.39 1.45.55 1.26 2.92 1.32 4.12 2.08.29 3 2.71 5.31 1.47 1.26 1.07 2.87 1.28 3.83 2.66 1.32-.72.06-1.8-.88-2.06 1.12-2.92 1.95-3.65-2.07-2.51-.5-2.92-3-3.7-5.3-2.06 0-.59.14-1.62.74-1.92-.13-.41-.75-1.15 0-1.33 2.5.71 3.12-1.82 5.6.3 1.1-1.4.41-3.27 2.94-2.65-.84-1.57.11-3.56-.29-5-1.64.59-3.25.61-3.68 2.65-.67-.54-2.45.36-3.1-1-.37-.64.41-1.42-.15-1.92-2.12-.36-1.1 1-.44 2.07-.36 1.31-.46 4.48-2.65 3.83-.12-3-2.36-.6-3.68 0-.37-1.09.91-1.45 1-2.36-.53.13-2.41-.92-1.92.44-.1.42-1.43 1.12-1.77 1.33.44.66 3 .31 2.66 1.91-.25.88-.81-.1-1.18-.29-1.44-.45.04 1.87-1.4 2.01zm1.77-43.47c.47.7.58.17.89-.29-.46-.35-.68-.28-.86.28zm.29 49.81c.57.47.78.06 1-.45-.58-.37-.74-.24-.97.44zm4.72.29c-.56-.25-2.52-1.12-1.91.3 1.47.61.63 1.39-.45 1.77-1.26 1.06 2 1.2 2.66 1.32-.17-.81-.88-2.64-.27-3.4zm2.65-4c1.4.3 0 2.07-.73 1a5.59 5.59 0 00.76-.99zm1.92-10.75a6.85 6.85 0 00-.15-4.28c-.92-.32-.2 4.02.18 4.29zm-.26 3.4a.79.79 0 011 .59c-.45-.05-1.24.22-1-.59zm1.32 9.28c.72 0 1.33.75.74 1.32-.59-.02-.78-.84-.74-1.32zm1.33-1.62c2.34-.77 3.67-1.64.29-1.47-1.39-1.49-.28.81-.29 1.47zm2.06-8.66c-.18.64-1.39.8-1.32 0 .34-.44.92-.28 1.32 0zm-1-12.38c.5.45 1.75 1.77 2.21.59-.49-.71-1.83-2.06-2.24-.62zm5-1.33c-2.56-.88-.51 1.56.44 2.06-.44 1.28-2.75 1.49-3.83 1-1.41 1.48 2 1.44-.59 4.27.84.41 4.24 2.31 3.83.29-.53-.23-.83-.94-.15-1.18 1.25.5 2.59-.34 3.84.15.9-1.11-3.85-2.92-2.07-3.83 2.91 1.42 3.53-4.36 1.18-4.86-3.45 1.42-3.01-2.11-2.67 2.07zm-1.62-5c.59.1 1.08-1 1.32-1.33-.78-.76-2.34.55-1.34 1.29zm2.21 16.8a3.38 3.38 0 00.44-1.77c-1.19-.38-1.19 1.35-.46 1.73zm.74-22.69l-1-.45c-.21.53 1.06 1.05.98.41zm4.69 6.6a4.54 4.54 0 01-2.65-2.51c-1.91 1.81-.93-.69-2.8 2.21.1.75 1.75 1.15 2.35.89 1.07 1.29 3.05 1.41 3.1-.59zm-2.36 39c.14-.92-.11-1.17-1-1-.02.49.48 1.11 1 1zm0-42.74c2.34.25.38 4.06 3 2.36-.45-1.82-5.05-8.43-3-2.32zm.3-9.28c.2 1.54 1.16 2.35.73 4a1.71 1.71 0 003-1c-3.01-.34.06-4.61-3.73-2.98zm2.65-9.73c-.33 1.28 1.47 1.76 2.36 2.07.87-1.42-1.01-2.88-2.36-2.03zm0 17.39c1.21.38 1.87-.79.73-1.32.14.58-.98.75-.73 1.36zm.29-8.64c-.55 2 2.47.35 3.25 1.62C74 69.16 70.14 68 69.06 69zm1.33-4.42c0-.4-.08-1.23-.59-1.33.02.35-.17 1.87.59 1.32zm2.06 3.68c-.28-.68.81-1 .74-1.62-1.96-.41-2.99.79-.74 1.61zM73.78 55c.4-.93-1.1-1.07-1.62-1.33-.16.66 1.22 1.08 1.62 1.33zm-.59 1.91c.14 3.28 2.94.61 1.92-1.32-.11.74-1.38 1-1.92 1.31zm.59 9c.71-.11 1.62-.23 1.48-1.18-1.19-.61-2.26-.34-1.48 1.16zm1 5c-.14-.6 0-2.26-1-2.21-.59.9.22 1.79 1.03 2.2zm1-25.64c-.14-.48-.49-1.43-1-1.62a1 1 0 001.06 1.61zm0 17.69c.62-.69-.25-1.65-1-1.62.15.55.42 1.44 1.06 1.66zm-.73-9.29c.15 1.31 1.07 1.1 1.76.3-.38-.33-1.28-.97-1.7-.31zm2.06 2.21c-1.11 1.12-1.3 1.73-.53 3.38 2.42 2.37 4.42-4.65.59-3.39zm1.62-6.63c.65-.58-.06-1.28-.59-1.62-.68.48.05 1.37.65 1.61zm1-.59c.86.32.86-1.35 0-1zm28.3-38.46c.33.34 1.41.32 1.32-.29a.83.83 0 00-1.23.28zm5 97.11v-1.92c-1.11-.33-.97 2 .09 1.91zm.45-91.07c.64.14.62-.22.58-.73-.55-.15-.52.21-.49.72zm4.27 2.36c.39-.83-1.21-.82-1.62-1 .3.54 1.06 1.53 1.71.99zm-.59 86.79c.64.14.62-.22.59-.73-.55-.15-.53.21-.5.72zm3-85.17c2 .05 3.45 3.56 3.68 0-1.58-.07-3.69-2.8-3.64-.01zm1.91 4c.18-1.18-.15-1.5-1.33-1.32 0 .9.38 1.43 1.37 1.29zm.89.44c-3.25 3.64 3.8-1.5 3.68 4.87.58.79 2.18.41 2.95 1 1.42 1.88-1 2.32.44 3.83-.33.55-3.31 2.8-2.8 3.1 1 .35.08 2.79 1.48 1.47-.28-1.43.43-2 1.76-1.33 1.09-.88 3.18-.6 2.51-2.36-1.07-.83-1.49-1.18-.89-2.36-1.56-.36-1.78-3.08-1.77-4.27-1-1-2.92-.62-2.79-2.35-1.24 0-2.8-1.5-1.33-2.36-.42-1.67-2.55-.05-3.2.73zm3.83.3c2.19.16 1.76-2.25 0-2.65zm1.62 8.69c.56.78 1.11-.35.44-.74a6.26 6.26 0 00-.4.71zm.73 9.29c.33-.74.43-1.9-.73-1.62.13.38.06 1.74.77 1.59zm1 15c.25-1.14 1.14-2.43-.74-2.36-.48.47.31 2.11.82 2.36zm0-7.37c.87.43 1.57-2 .29-1.92-.19.49-.94 1.49-.21 1.92zm.29-5.31c2.56-1.06 2.25.24 4.42-.29-.38-1.71-1.9-6.1-4.12-4.42.19.9.53 2.81 1.62 3.09-.5.53-2.52.21-1.84 1.62zm0-18.71h1c.08-.64-1.21-.88-.92 0zm2.06 21.66c.19-.5-.41-1-.73-1.32-.45.5.15 1.45.81 1.32zm2.36 7.66c1.54.69.4-1.15 2.21.74.48-1.45-1.92-2.48-2.13-.74zm1.62-7.22c.45-1.08-1.57-1.58-1.32-.44.29.08 1.18.54 1.4.44zM178.28 53.58c-8.62 16.65-12.74 24.66-19.09 38.27-2.16 4.62-6 12.53-6.78 17.23-1.08 6.56 4.72 13.46 12.71 5 5.89-6.22 10.61-13.22 14.85-19.87 5.67-8.89 4.79-9.76 9.61-8.59 7.46 1.81 3.71 5.32-2.65 16.35a109.72 109.72 0 01-14.22 19.47c-8.8 9.37-18.74 12.32-29.44 7-2.75-1.36-7-5.85-7.8-9-2.33-9 4.8-21 11.93-37.26 4.46-10.21 9-19.91 13.5-30.79 1.71-4.15 18.98-.89 17.38 2.19zm-31.73 63.86c.57.48.77.07 1-.44-.61-.36-.77-.24-1 .44zm3.69-15.76l-1 .59c.28.63 1.45-.03 1-.59zm-1 11.64a2.38 2.38 0 001.62-2.65c-1.35.07-1.24 1.78-1.65 2.65zm.29 7.37l1 .29c-.04-.72-.82-1.22-1.03-.29zm1-12.68c.57-.79-.4-1.79.74-2.35-.86-1.55-2.01 2-.74 2.34zm0-10.31c.94.41 2.11-1.08 2.66-1.62-1.27-1.25-2.71.17-2.66 1.62zm4-6.34c0-.37-.17-.91-.59-1-.63.64-.29 1.06.57 1zm.3-14a.84.84 0 001 1c.53-1 .07-1.63-1.02-1zm-1.12 23a.82.82 0 00.29-1.62c-.07.26-.94 1.43-.31 1.61zm2.89-19.74c.16-.52-.51-1.39-1-1.33-.37.86.02 1.42.98 1.32zm.29 6.77c1.41 3.41 3.82-3.89 1-3.09-.08.29-1.18 2.81-1.02 3.08zm2.65-19.74c-1 1.71-3.37 2.17-1 4 1.49-.8 4.06.45 5.16-.58 1.29-.33-.19 2.07.59 2.65 3.51-2.32.26-6.62-1.77-8.69-3.36-.5-3.21-.61-3 2.61zm-1.91 14.73c.61-.06 1.64.3 1.32-.73-.78-.56-1.03.07-1.34.72zm.88-9c-.19 1.23-.34 2.81 1.33 2.94-.3-1 2.06-2.85 1.47-1.62.83 4.5 5.22-4.38-2.82-1.31zm0-3.69c.39-.45 1.42-.47 1 .29-.18-.07-1.26.25-1.02-.28zm.74 9c0 1.27.88.94 1.77.74.34-1.38-.95-1.35-1.79-.74zm3-12.08c1.14 1.29-1.82 3.68-1.92 2.21.61-.89.45-2.32 1.85-2.21zm3.39-6.93c-2.3 6.31-4.64.19-4.57 3.24 1 0 1.86 1.2 2.94.44 3.44 2.93 2.45 2.29 2.51-.44 1.81 2.77 2.59-.86 3.39-2.21-3.14.42-4.55-3.96-4.34-1.03zM162.66 57c1.17.08 1.92.09 1.62-1.33-.66-.21-1.62.74-1.62 1.33zm-.78 3.68h1c.03-.82-1.31-1.03-1 .03zm2.06 7.22a1.08 1.08 0 010 2.06c.06-.32.25-1.73 0-2.03zm1.63-.29c.39 0 1.22-.08 1.32-.59-.62-.24-1.5-.39-1.32.62zm21.66-33c-3.9 11.63-23.91 7.33-20.19-6 3.54-12.75 24.43-6.61 20.19 6.02zM169.29 57c3.07 1.42-.45-1-.59-1.77-1.25-.07.19 1.5.59 1.77zm0 1.33c-.5-.15-1-.55-1 .29.22.38 1.06.27.96-.26zm9.28-28.45c.24.9.61 2.33-.59 2.66 1.38 4.58 1.87 2.18 2.07-1 3.81-.63.61-2.31-1.52-1.63z"></path><path class="cls-1" d="M231.91 108.71c4-5.82 9.45-14.67 12.45-21.71 2.41-5.64 11.34.7 8.67 4.62-7 10.31-15.19 27.31-21.39 33-10.34 9.53-24.82 8-28.95-1.39-6.94-15.75 11.05-31.22 9.58-46.71-.38-4-4.52-6.2-6.84-7.86-.82 1.48-2 3.72-3.77 7C199 80.6 194 89.62 191.5 94.24c-1.43 2.65-4.66 3.9-6.82 2.81-1-.52-4.53-2.89-4-3.92 3.36-6.12 11.07-18 14.31-23.81 1-1.76 2-3.23 2.81-4.94-2.28-2-7.77-11-.45-20.7 5.3-7 17.16-7.61 18.35 1.77.8 6.31-4.25 12.74-4.84 14 4.2 5.61 17.61 6.88 18.47 17.68-.75 11.54-8.33 21.56-10.91 32.57-2.94 12.71 8.58 6.23 13.49-.99zm-26.27 1c.46-.1 2.06 0 1.47-.88-.69-.28-1.75-.04-1.47.87zm1.62-5c1.76-.45 1.85-1 .88-2.51-1.57-.93-.64 1.89-.88 2.49zm1.32-4.13c.52 0 .87 0 .74-.59-.52-.05-.88-.07-.74.57zm.74-3.24c1.34-.22 1.33 0 1.62 1.48 3.57-.14-.06-6.74-1.62-1.5zm.59 15a2 2 0 001.47-1.77c-.96.15-1.22.99-1.47 1.78zm.44 6c1.4 1.44 2.45-.33 2.36-1.76a1.75 1.75 0 00-2.36 1.81zm.59-14.14c.52 1.09 1.6.35 2.36 0-.36-1.38-2.18-1.47-2.36.05zm3.39-15.92c.61 1.27.77 2.39-1 1.62.53 1.63 3.26 1.34 3.09-.59 2.04-1.04-1.19-1.89-2.09-.98zm-.74 5.31c.78.23.9-.45 1-1-.88-.12-1.13.13-1 1.05zm0 2.65c.52 0 .88 0 .74-.59-.52.01-.87 0-.74.64zm.44 11.64c1.95.27 1.81-1.76.3-2.36-1.06.13-.67 1.88-.33 2.41zm.89-7.66c.5 1.62 2.33 2.25-.89 2.06.33 4.39 5.29-4 .89-2.01zm4.71-29.62c-3.46 1.9-2.21-2.89-4 2.36 1.79.49 4-2.22 3.54 1.32-.66 1.1.59 3.26-1.18 3.25.45 1.14.4 3.36-1.32 3.09-.85-.88.49-2.65-1.63-1.91-.14.73 1.47 2 1.33 3.24a1.41 1.41 0 002.21-1c.74.33 1.41-.89 1.77-1.32-1.1-2.6 1.12-2.94 3.24-3.1.55-1.59-3.14-3.47-3.68-4.56 2.09-.52 1.42-3.35-.28-1.32zM219 87.89c-.55 1.16 1.61 2.14 1.33 3.39-1.35.43-2.7-.51-3.83-.15-.94 1.53-1.27 3.51.15 4.87-.34 1.53-.06 3.24 1.91 2.94.16-.71-2-1.64-.88-1.77 1.19-.84-.42-2.63 1.17-3.24.58-1.35-.86.25-1.17-.59l.59-.73c2.3 1.1 3.17-1 2.65-3 1.58-2.61.58-2.42-1.92-1.72zm.89-3.24c-.53-1.65-2.2-.31-3.39 0-.17 1 3.35 2 4.71 1.91 1.29-.63.92-4.85-.88-4.56.16.72.67 2.34-.4 2.65zm1-9.43c.65-.1.83.08.73.74-.62.09-.76-.09-.62-.74zm3.39 5c-.3-.32-1.65-.56-1.77 0 .34.64 1.49.33 1.84.01z"></path><path class="cls-1" d="M288.18 24.49c1.24 2.26-5.52 13.85-7.13 18.24h10.48c5.27 0-.47 11.82-4.9 11.93-4 .11-6.77.12-10 .17-.48 1.24-2 4.32-3.59 8.07-3.62 8.46-7 16.07-10.67 24.55-9 20.92-10.83 28.36-6.19 32.17 5.1 4.18 19.53-10.88 30.29-28.38 2.7-4.39 9.46-2.45 8.25 2.5-.86 3.55-18.32 25.24-21.31 27.86-6.37 5.57-12.08 9.48-22.09 9.48-18.3 0-19.3-15-12.58-31.2 6.9-16.65 16.71-36.7 20.09-44.95-8.36 0-17.94 1.73-9.08-10.11C251.92 42 256 42.46 264 42.46c1.41-3 7.15-16.76 8.26-18 1.97-2.38 14.2-3.09 15.92.03zm-45.58 80c.86.32.86-1.35 0-1zm2.8 1c-.26-.39-1.38-.29-1.77-.29.06 1.21 1.29 1.31 1.77.33zm-.74 16.65c.8.35 1.85-2.72.74-3a26 26 0 00-.74 3.04zm1.62-6.63c1.15.31 1.33-1.4.45-1.77-.38.46-1.22 1.34-.45 1.81zm1-9l.29-1.77c-.92.32-1.45 1.44-.25 1.82zm3.72-9.67c.89.37 1.94-.36 1.47-1.33-1.12-.93-1.69.28-1.47 1.33zm5.6-6.34c-.1-.48-1.9-.24-2.21-.29-.34 2.21 2.53 2.87 2.21.29zm-.88-5.75c-.36 1 1.13.84.88 1.77 1.4 1.77.92-3.33-.88-1.77zm1.62-8.54c.74-.92.9-1.35-.44-2.07.22-.66 1.58-.3 2.06-.29-.96-3.26-4.28.83-1.62 2.36zm2.06 5.6c-.17-.42-.48-1.09-1-1-.22.55.47 1.03 1 1zm1.92-19.31c-2.66.2-1.65 4.28.29 5h.74c.76-3.65 1.73-.13 1 1.62-2.02 1.88-6.35-2.71-3.35 2.67a9 9 0 00-.59 3.39c1.17 0 2-1.9 3.24-1 2.77-3.13 2.49-.43 2.65-6 1.9-5.85-2.58-2.26-3.98-5.68zm-1.33 15c1.13 0 2.36-1.36.74-1.77-1.39-.35-1.03.94-.73 1.8zm0 3c.73 0 1.42-.12 1.33-1a1.1 1.1 0 00-1.32.98zm2.06-9.28a1.37 1.37 0 01-1.32 2.21c-.21-.9.32-2.2 1.32-2.23zm-.73-8.7a.7.7 0 00.73-.73c-.4.02-.85.21-.73.71zm.73-10.31c1.12 1.62 1.9 3.09.59 5 .84.1 2.14.16 2.06 1.32-2.43-.67-3.36 1.7-.58 1.92 1.41-.17 1.21-1.77 1.17-2.8.24-.9 1.34-2.19-.29-2.36-.83-1.15-1.1-6.95-2.95-3.1zm1 17.68c1 .38 1.19 2.17-.14 1.92-.15-.57-.42-1.53.17-1.94zM269 53.81c-1-.65-.45-3.08-2.07-3-2.12-2.15-2.78.9-.14 1.33.75 1.81-1.5 4.16 2.36 2.8.36-2.14 2.55-1.62 3.24-.15.74-.52-2.3-5.81-2.95-3.54.03.75.35 2.16-.44 2.56zm8.1-18c.24-2.65-3.49.55-4.12 1.62a5 5 0 00-1.92-1c-.31 1 1.94 2.35 1.33 3.68 1 .42 1.31 1.59 0 1.77-1.6-.33-3.6 1.18-5 .59 0 .58-.16 1.62-.74 1.92.3.46.94 1.5.59 2.06-3.64 2.26.93 1.4-.15 3.68 3.65-2.25 3.21 1.37 4.87-1.62 1.92 1.66-1.27 3.74 4.12.3 2.32 1-1-2.59 0-4-.54-1.2-2.46-.75-2.36-2.06 6-2.32-3.09-.12 2.36-3.1.28-1.46-1.72 0-2.21.3-1.35.18 1.73-2.59 1.62-2.8 1.19-.89 1.49.34 2.5.59.56-.57.01-2.08-.91-1.91zm-7.66 20.92a1.25 1.25 0 00-1.77.45c-.58-.77-.92 0-1.32.44-2.07 1.18 2.67 1.93 3.39 2.8 1.12.52 1.5 0 .58-.88-.01-1.54 1.93-3.24-.9-2.79zm-.73-15c-.19-.56.44-1.5.73-1.92-1.33-.49-2.63 1.93-.75 1.92zm3.68 2.65c-.21 1.35-2.23 1.94-3.39 2.06-.31-1.74 2-2.67 3.37-2.06zm1 1.76a1.61 1.61 0 011.32 1.33c-.94.23-1.4-.4-1.31-1.33zm5.89-11c-.79-.22-1.13.37-1.33 1a1.11 1.11 0 001.34-1.05z"></path></g></svg>