<svg xmlns:xlink="http://www.w3.org/1999/xlink" xmlns="http://www.w3.org/2000/svg" viewBox="0 0 534.24 102.02" width="534.24"  height="102.02" ><g data-name="Layer 2"><g data-name="Layer 1"><path d="M210.68 4.09a12.22 12.22 0 00-16.34-.27l-.26.27a10.76 10.76 0 00-.28 15.5l.28.26a12.2 12.2 0 0016.6 0 10.79 10.79 0 000-15.77zM23.94.83H0v99.04h23.94V.83zM32.39 99.87h23.77V60.09c.33-5.94 4.79-10.4 11.23-10.4 6.93 0 11.22 5 11.22 11.23v39h23.77V59.1c0-18.65-11.23-30.38-28.89-30.38C62.93 28.72 57.31 32 51.7 40h-1.15l-3.8-9.41H32.39v69.28zM190.27 99.87h23.77V30.54h-23.77v69.33zM369.28 99.87h7.59L408.24.83h-9.58l-25.09 84.35L350.46.83h-9.25L318.1 85.18 293.18.83h-9.74l31.53 99.04h7.59l23.28-84.35 23.44 84.35zM420.79 21.58a5.58 5.58 0 005.68-5.53 5.75 5.75 0 10-11.5 0 5.6 5.6 0 005.82 5.53zM416.18 99.87h9.24V30.54h-9.24v69.33zM470.67 30.37H467a22 22 0 00-20.47 13.05h-.5l-1-12.88h-6.6v69.33h9.24v-41.6C448.05 47.21 456 38 467.2 38h3.47v-7.6zM158.54 36.81h-1s-4-7.92-17.17-7.92c-18 0-31.37 14.86-31.37 36.48 0 22.29 13.71 36.15 32.2 36.15C156.89 101.52 162 91 162 91h1l3.8 8.91h15.51V0h-23.77zm-12.21 45.24C138.24 82.05 133 75 133 65s5.29-16.67 13.38-16.67c8.41 0 13.53 6.44 13.53 16.67s-5.17 17.05-13.58 17.05zM256.66 28.89c-20.8 0-35.33 15.52-35.33 36.32 0 20.47 14 36.81 38.14 36.81 18 0 26.74-8.58 26.74-8.58l-8.09-15.36a30.33 30.33 0 01-17 5.28c-9.91 0-15.52-4-16.84-13.37h45.23s.17-4.12.17-6.6c0-21.46-12.68-34.5-33.02-34.5zm-12.05 28.23c1.49-7.43 5.78-11.06 11.39-11.06 6.77 0 10.56 4.46 10.9 11.06zM534.24 65.37v-2.31c0-19.48-10.73-34.17-30.37-34.17-19.15 0-32.19 14.86-32.19 36.65s13.53 36.15 34.5 36.15c16.67 0 24.43-7.93 24.43-7.93L527 87s-7.1 6.6-20.31 6.6c-14.36 0-25.58-9.91-25.58-28.06v-.17zm-30.37-28.56c12.38 0 19.47 7.93 20.8 21h-43.09c2.15-14.06 10.57-21 22.29-21z"></path></g></g></svg>