<svg xmlns:xlink="http://www.w3.org/1999/xlink" xmlns="http://www.w3.org/2000/svg" viewBox="0 0 803 211" style="height:100%" width="803"  height="211" ><path d="M70.4 71.3L46.7 61.2c-5.3-2.4-7.9-5.4-7.9-9.8 0-7.3 6.6-10.7 15.8-10.7 16.1 0 32.5 9.6 44.9 21.6V21.4c-7.5-7.1-24.6-15-43.2-15C24.8 6.4 0 25.3 0 54.8 0 78.1 14.6 88.6 32.5 97l26.3 11.6c6 2.6 12 5.6 12 13.1 0 8.1-7.7 12.2-19.9 12.2-18.6 0-36.2-11.1-50.1-21.4v40.2c10.7 7.7 28.5 15.2 49.2 15.2 33.2 0 59.1-18.6 59.1-50.5 0-23.7-13.2-35.2-38.7-46.1"></path><path d="M61.5 82.8c-12.6 0-21.8-9.8-21.8-24.2s9.2-24.2 21.8-24.2c12.4 0 21.8 9.8 21.8 24.2s-9.4 24.2-21.8 24.2M70.2.6c-14.1 0-24 5.1-29.7 9.8V3.2H.7V159h39.8v-52.2c5.8 4.7 15.6 9.8 29.7 9.8 29.3 0 52.4-24.6 52.4-58 .1-33.4-23-58-52.4-58" mask="url(#mask-2_1_)" fill-rule="evenodd" clip-rule="evenodd" transform="translate(118 51.153)"></path><path d="M309.8 134c-12.4 0-21.2-9.6-21.2-24.2s8.8-24.2 21.2-24.2c12.4 0 21.2 9.6 21.2 24.2 0 14.5-8.8 24.2-21.2 24.2m0-82.2c-32.7 0-60.6 24-60.6 58s27.8 58 60.6 58c32.7 0 60.6-24 60.6-58-.1-34-27.9-58-60.6-58M503.6 122.4v-32h25.7v-36h-25.7V21.6l-39.8 11.6v21.2h-10.4c-14.8-.2-25.9 4.7-32.5 13.3V54.4h-39.8v110.9h39.8v-49.9c0-18.4 12.5-25 32.5-25h10.4v36.3c0 28 19.5 41.1 43.4 41.1 7.5 0 16.1-1.3 22.5-4.3v-34.9c-4.1 3.2-9 5.1-14.1 5.1-6.6.1-12-3.2-12-11.3"></path><path d="M23.1.8h-.4C10.7.8.9 10.2.9 22.4.9 34.6 10.7 44 22.7 44h.4c12 0 21.8-9.4 21.8-21.6C44.9 10.3 35.1.8 23.1.8" mask="url(#mask-4_1_)" fill-rule="evenodd" clip-rule="evenodd" transform="translate(540 -.847)"></path><path d="M543 165.2h39.8V54.4H543zM593.6 109.8c0 34.2 28 58 59.7 58 7.9 0 15-.9 21.2-2.8v-36.8c-5.6 3-10.3 5.1-18.6 5.1-12.6 0-24.4-8.8-24.4-23.5s11.8-23.5 24.4-23.5c8.3 0 13.1 2.1 18.6 5.1V54.6c-6.2-1.9-13.3-2.8-21.2-2.8-31.7 0-59.7 23.7-59.7 58M741.7 134c-12.4 0-21.2-9.6-21.2-24.2s8.8-24.2 21.2-24.2c12.4 0 21.2 9.6 21.2 24.2 0 14.5-8.8 24.2-21.2 24.2m0-82.2c-32.7 0-60.6 24-60.6 58s27.8 58 60.6 58c32.7 0 60.6-24 60.6-58s-27.8-58-60.6-58"></path></svg>